<?xml version="1.0" standalone="no"?><!DOCTYPE svg PUBLIC "-//W3C//DTD SVG 1.1//EN" "http://www.w3.org/Graphics/SVG/1.1/DTD/svg11.dtd"><svg t="1769402280497" class="icon" viewBox="0 0 1024 1024" version="1.1" xmlns="http://www.w3.org/2000/svg" p-id="5592" xmlns:xlink="http://www.w3.org/1999/xlink" width="200" height="200"><path d="M803.918769 1024H220.081231C98.540308 1024 0 925.479385 0 803.918769V220.081231C0 98.540308 98.540308 0 220.081231 0h583.837538C925.479385 0 1024 98.540308 1024 220.081231v583.837538C1024 925.479385 925.479385 1024 803.918769 1024" fill="#653E66" p-id="5593"></path><path d="M301.686154 768h-56.713846V216.615385h189.833846c51.456 0 89.678769 16.029538 114.609231 48.04923 24.950154 32.019692 37.435077 74.043077 37.435077 126.03077 0 18.372923-0.551385 34.264615-1.575385 47.655384-1.063385 13.390769-4.332308 30.208-9.846154 50.412308-5.533538 20.224-12.996923 36.765538-22.468923 49.624615-9.432615 12.878769-23.886769 24.142769-43.303385 33.87077-19.436308 9.728-42.535385 14.572308-69.336615 14.572307h-138.633846V768z m0-236.307692h131.564308c18.904615 0 34.894769-3.662769 48.029538-11.027693 13.115077-7.364923 22.724923-15.222154 28.750769-23.630769 6.045538-8.388923 10.771692-20.48 14.178462-36.233846 3.426462-15.753846 5.257846-27.569231 5.513846-35.446154 0.275692-7.876923 0.413538-19.160615 0.413538-33.870769 0-79.812923-33.358769-119.729231-100.036923-119.729231H301.686154V531.692308zM719.182769 768h-56.713846V373.366154h55.118769V393.846154c23.650462-17.329231 53.563077-25.993846 89.796923-25.993846 17.841231 0 37.533538 2.107077 59.076923 6.301538l-14.178461 53.563077a189.380923 189.380923 0 0 0-57.088-8.664615c-19.692308 0-37.316923 5.12-52.795077 15.36-15.497846 10.24-23.217231 24.024615-23.217231 41.353846V768" fill="#F9A3FF" p-id="5594"></path></svg>