<?xml version="1.0" standalone="no"?><!DOCTYPE svg PUBLIC "-//W3C//DTD SVG 1.1//EN" "http://www.w3.org/Graphics/SVG/1.1/DTD/svg11.dtd"><svg t="1769402336976" class="icon" viewBox="0 0 1050 1024" version="1.1" xmlns="http://www.w3.org/2000/svg" p-id="6644" xmlns:xlink="http://www.w3.org/1999/xlink" width="205.078125" height="200"><path d="M62 62m163.46153849 0l596.15384589 0q163.46153849 0 163.46153848 163.46153849l0 573.07692304q0 163.46153849-163.46153848 163.46153847l-596.15384591 0q-163.46153849 0-163.46153847-163.46153847l0-573.07692304q0-163.46153849 163.46153847-163.46153849Z" fill="#00005B" p-id="6645"></path><path d="M432.82692266 600.46153877H289.78461582l-29.10384668 90.58076894A7.28461582 7.28461582 0 0 1 253.25 696.61538457H180.8q-6.19999981 0-4.33461533-6.81153838l123.84615411-355.20384638c1.23846154-3.71538457 2.47692305-7.3461542 3.71538456-12.09615382a132.28846172 132.28846172 0 0 0 2.47692304-25.07692323 3.83461523 3.83461523 0 0 1 4.33461534-4.33846143h98.457692q4.32307705 0 4.95384609 3.0999999l140.56538467 394.23076963q1.85384619 6.19999981-3.71538458 6.19615372h-80.4999999a5.72307715 5.72307715 0 0 1-6.19230762-4.33461534zM312.07692325 524.08461552h97.83846123q-3.71538457-12.37692304-8.66923068-27.86538515-4.96153828-15.46923076-10.52692294-33.12692227l-11.14615371-35.29615429q-5.57307685-17.6500002-10.21923106-34.0576919-4.6423081-16.40000039-8.35769267-30.03461544h-0.61923076a499.37692325 499.37692325 0 0 1-13.003846 49.53846095q-8.68076895 27.86538428-17.64999932 56.96923096-8.98076953 29.11538496-17.64615409 53.87307714zM782.69230742 565.20384629h-121.98461484a86.9923081 86.9923081 0 0 0 11.76923057 34.11538418 63.70769268 63.70769268 0 0 0 28.16923096 23.22307705 117.65384647 117.65384647 0 0 0 49.23076904 9.65000039 223.08846153 223.08846153 0 0 0 39.93846152-4.38461543 147.20769229 147.20769229 0 0 0 34.34230723-8.95384599c2.05769268-1.64230752 3.09615381-0.61538467 3.09615468 3.09999989v58.82692325a9.16923075 9.16923075 0 0 1-0.93076963 4.64230722 8.88461541 8.88461541 0 0 1-2.78461582 2.78461583 157.47692345 157.47692345 0 0 1-38.36538458 11.43076904 272.15384589 272.15384589 0 0 1-54.49230702 4.64230721q-43.97692325 0-73.69230762-13.62307674a131.33461553 131.33461553 0 0 1-48.29615421-36.53461495 143.06538428 143.06538428 0 0 1-26.62692274-50.46538535 198.72307705 198.72307705 0 0 1-8.05000079-56.03846132 195.17692325 195.17692325 0 0 1 9.6000003-60.9999996 159.32692266 159.32692266 0 0 1 28.79230782-52.63076954 138.32307685 138.32307685 0 0 1 46.442308-36.53846104c18.16153857-8.86923106 39.63076963-12.0538459 64.4000001-12.05384677a139.74999961 139.74999961 0 0 1 59.75384589 11.76923056 105.31538438 105.31538438 0 0 1 40.56153839 30.63076963 140.83076953 140.83076953 0 0 1 22.91153818 43.65384609 155.56923106 155.56923106 0 0 1 7.43076914 47.06153877q0 13.62692285-0.93076875 24.76923047-0.92307657 11.14615371-1.5461543 16.09999981a5.61153867 5.61153867 0 0 1-5.57692295 4.95384609q-3.71153847 0-12.69230713 0.93076963-8.98076953 0.92692266-22.2884622 1.23846152c-8.88461541 0.21153867-18.26923097-1.2999999-28.17692313-1.2999999z m-121.98461484-56.40769248h81.11538457q14.86538437 0 21.98461553-0.30769189a21.63076963 21.63076963 0 0 0 8.98076865-2.98076924v-3.71538458a49.53846182 49.53846182 0 0 0-2.47692305-14.24230839 50.58846123 50.58846123 0 0 0-50.1538456-35.29615342 53.79230742 53.79230742 0 0 0-51.09230831 29.1038458 89.57692266 89.57692266 0 0 0-8.35769179 27.43846172z" fill="#9999FF" p-id="6646"></path></svg>