<?xml version="1.0" standalone="no"?><!DOCTYPE svg PUBLIC "-//W3C//DTD SVG 1.1//EN" "http://www.w3.org/Graphics/SVG/1.1/DTD/svg11.dtd"><svg t="1769403126273" class="icon" viewBox="0 0 1024 1024" version="1.1" xmlns="http://www.w3.org/2000/svg" p-id="30314" xmlns:xlink="http://www.w3.org/1999/xlink" width="200" height="200"><path d="M1022.93473 429.44a446.123 446.123 0 0 0-19.456-100.437 175.787 175.787 0 0 1-15.53 31.701A401.92 401.92 0 0 0 823.72473 93.44a399.701 399.701 0 0 0-99.158-51.67 313.6 313.6 0 0 0-14.421-4.778 300.459 300.459 0 0 1 60.8 148.096c0.256 1.877 0.47 3.755 0.64 5.675a2.56 2.56 0 0 1 0 0.426c0.213 1.92 0.427 3.883 0.555 5.846v1.024a223.957 223.957 0 0 1 0.426 5.845 246.357 246.357 0 0 1 0.427 10.027 8.277 8.277 0 0 0 0 0.682v6.998a300.672 300.672 0 0 1-54.101 172.458 270.293 270.293 0 0 1 3.2 93.654 263.552 263.552 0 0 0 49.664-17.11 263.85 263.85 0 0 0 34.133-18.773 268.075 268.075 0 0 1 10.368 74.41 269.525 269.525 0 0 1-2.987 40.363 266.197 266.197 0 0 0 68.907-16.64c11.605-4.522 22.87-9.813 33.707-15.914a266.41 266.41 0 0 1 4.266 47.701 269.141 269.141 0 0 1-5.76 55.381 266.752 266.752 0 0 0 81.323-16.213A446.165 446.165 0 0 0 1024.00073 464.213a366.933 366.933 0 0 0-1.024-34.816zM903.12673 676.65a242.56 242.56 0 0 1-16.64 0.513h-5.504a266.667 266.667 0 0 0 8.448-66.859 269.653 269.653 0 0 0-1.706-30.08 265.813 265.813 0 0 1-82.944 25.344 257.152 257.152 0 0 1-24.448 2.133 264.619 264.619 0 0 0 4.906-39.594 276.352 276.352 0 0 0 0.342-13.312 268.373 268.373 0 0 0-6.06-56.832 265.984 265.984 0 0 1-90.452 33.109l-0.214-0.299a263.595 263.595 0 0 0 4.736-37.802 239.659 239.659 0 0 0 0.427-14.507c0-16.128-1.45-32.256-4.352-48.128a301.099 301.099 0 0 1-218.325 93.355 300.501 300.501 0 0 1-138.54-33.622 267.221 267.221 0 0 0 55.212-29.226 268.8 268.8 0 0 1-152.448-242.347 268.63 268.63 0 0 1 4.352-48.427 264.363 264.363 0 0 1 12.885-46.421 264.832 264.832 0 0 1 20.65-42.752 267.221 267.221 0 0 1 32.214-43.35A521.045 521.045 0 0 0 191.14873 108.8 520.832 520.832 0 0 0 13.99673 391.723 520.363 520.363 0 0 0 0.00073 512.043a518.528 518.528 0 0 0 63.573 249.642 266.71 266.71 0 0 1 18.987-73.088 497.45 497.45 0 0 0 366.293 298.411 266.07 266.07 0 0 1-34.304-59.05 469.675 469.675 0 0 0 133.376 22.783c4.01 0 8.022 0.128 12.075 0.128A468.65 468.65 0 0 0 767.66073 902.7a263.51 263.51 0 0 1-30.891-20.395 448.299 448.299 0 0 0 184.32-132.01 446.677 446.677 0 0 0 57.856-89.302 267.008 267.008 0 0 1-75.819 15.616z" fill="#F44A53" p-id="30315"></path></svg>