<?xml version="1.0" standalone="no"?><!DOCTYPE svg PUBLIC "-//W3C//DTD SVG 1.1//EN" "http://www.w3.org/Graphics/SVG/1.1/DTD/svg11.dtd"><svg t="1769402792335" class="icon" viewBox="0 0 1024 1024" version="1.1" xmlns="http://www.w3.org/2000/svg" p-id="12975" xmlns:xlink="http://www.w3.org/1999/xlink" width="200" height="200"><path d="M995.328 552.448c-3.072-3.072-6.144-6.144-6.144-9.216-6.144-12.288-15.36-20.992-27.136-30.208-9.216-6.144-27.136-15.36-30.208-24.064 6.144 0 12.288-3.072 17.92-3.072 9.216-3.072 15.36-3.072 24.064-3.072 3.072 0 9.216-3.072 12.288-3.072v-3.072c-3.072-6.144-9.216-12.288-12.288-17.92-12.288-12.288-27.136-24.064-42.496-36.352-9.216-6.144-17.92-9.216-27.136-15.36-3.072-3.072-9.216-3.072-9.216-6.144-3.072-6.144-6.144-15.36-9.216-20.992-6.144-15.36-15.36-33.28-20.992-51.712-3.072-12.288-6.144-24.064-12.288-33.28-27.136-48.64-54.272-78.848-96.768-109.056-9.216-6.144-20.992-9.216-33.28-12.288h-17.92c-3.072-3.072-9.216-6.144-12.288-9.216-15.36-9.216-51.712-33.28-63.488-3.072-6.144 17.92 9.216 36.352 15.36 45.568 3.072 6.144 9.216 15.36 12.288 20.992 3.072 6.144 3.072 9.216 3.072 15.36 6.144 12.288 9.216 27.136 15.36 39.424l9.216 17.92c3.072 3.072 6.144 6.144 6.144 9.216-3.072 6.144-3.072 15.36-6.144 20.992-9.216 33.28-6.144 72.704 6.144 96.768 3.072 6.144 15.36 24.064 27.136 17.92 12.288-6.144 9.216-20.992 12.288-36.352 0-3.072 0-6.144 3.072-9.216 3.072 9.216 6.144 15.36 9.216 24.064 9.216 15.36 20.992 30.208 33.28 39.424 6.144 6.144 12.288 15.36 17.92 17.92l-6.144-6.144c-6.144-6.144-9.216-12.288-12.288-17.92-12.288-17.92-20.992-33.28-27.136-51.712-3.072-9.216-9.216-17.92-12.288-27.136-3.072-3.072-3.072-9.216-3.072-9.216-3.072 6.144-9.216 12.288-12.288 17.92-6.144 12.288-6.144 27.136-6.144 42.496-9.216-3.072-12.288-12.288-15.36-20.992-6.144-20.992-9.216-54.272-3.072-78.848 3.072-6.144 9.216-24.064 6.144-30.208-3.072-6.144-6.144-9.216-9.216-12.288l-9.216-17.92c-6.144-15.36-9.216-33.28-15.36-51.712-3.072-6.144-9.216-15.36-12.288-20.992-6.144-9.216-9.216-12.288-15.36-20.992 0-3.072-3.072-9.216 0-12.288 0-3.072 3.072-3.072 3.072-3.072 3.072-3.072 12.288 0 15.36 3.072 9.216 3.072 17.92 9.216 24.064 15.36 3.072 3.072 6.144 9.216 12.288 9.216h6.144c9.216 3.072 17.92 0 24.064 3.072 12.288 6.144 24.064 12.288 36.352 20.992 33.28 24.064 60.416 57.344 78.848 99.84 3.072 6.144 3.072 12.288 6.144 20.992 6.144 15.36 12.288 27.136 17.92 42.496 6.144 12.288 9.216 27.136 17.92 39.424 3.072 6.144 17.92 9.216 27.136 12.288l17.92 9.216c9.216 6.144 17.92 12.288 24.064 17.92 3.072 3.072 17.92 9.216 17.92 15.36-20.992 0-36.352 3.072-48.64 9.216-6.144-3.072-12.288-3.072-12.288 3.072 3.072 3.072 3.072 6.144 3.072 9.216 3.072 6.144 9.216 12.288 12.288 17.92 6.144 6.144 12.288 9.216 15.36 12.288 9.216 6.144 20.992 12.288 30.208 17.92 6.144 3.072 12.288 9.216 17.92 12.288 3.072 3.072 3.072 6.144 9.216 6.144-1.024 1.024-1.024-2.048-1.024-5.12z" fill="#02608A" p-id="12976"></path><path d="M707.584 216.576c-3.072 0-6.144 0-9.216 3.072 3.072 0 12.288 24.064 15.36 24.064 3.072-3.072 6.144-9.216 6.144-12.288 0-6.144-3.072-9.216-9.216-12.288 0-2.56 0-2.56-3.072-2.56zM220.16 549.888l-54.272 190.976-54.272-190.976h-48.64c-9.216 81.92-17.92 166.4-20.992 260.608h42.496c0-69.632 0-130.048 6.144-196.608l54.272 196.608h36.352L235.52 613.888c6.144 69.632 6.144 130.048 9.216 196.608h45.568c-3.072-78.848-12.288-163.328-20.992-260.608H220.16z m181.76 66.56c-6.144 57.344-9.216 105.984-27.136 154.624 0-12.288-3.072-17.92-9.216-42.496l-30.208-112.128h-42.496l42.496 148.48c6.144 20.992 9.216 36.352 9.216 45.568s0 15.36-3.072 17.92c-6.144 6.144-15.36 9.216-27.136 9.216h-15.36v33.28c6.144 3.072 15.36 6.144 20.992 6.144 24.064 0 45.568-15.36 63.488-51.712 24.064-42.496 45.568-112.128 60.416-208.896h-41.984z" fill="#02608A" p-id="12977"></path><path d="M934.912 767.488v-218.112h-45.568v257.536H998.4v-39.424h-63.488z m-115.2 21.504c3.072-3.072 6.144-6.144 9.216-12.288 17.92-24.064 27.136-57.344 27.136-105.984 0-84.992-30.208-126.976-88.064-126.976-30.208 0-51.712 12.288-66.56 33.28-17.92 24.064-27.136 57.344-27.136 105.984 0 45.568 9.216 78.848 24.064 99.84 15.36 17.92 36.352 27.136 63.488 27.136 12.288 0 20.992-3.072 30.208-3.072l54.272 36.352 15.36-30.208-41.984-24.064z m-51.712-24.064c-15.36 0-27.136-6.144-33.28-20.992-9.216-15.36-12.288-39.424-12.288-69.632 0-57.344 15.36-84.992 45.568-84.992 15.36 0 27.136 6.144 33.28 20.992 9.216 15.36 12.288 36.352 12.288 69.632 0 57.344-14.848 84.992-45.568 84.992z m-136.192-84.992s-33.28-20.992-48.64-30.208c-17.92-12.288-30.208-24.064-30.208-39.424 0-9.216 6.144-15.36 12.288-24.064 6.144-6.144 15.36-9.216 27.136-9.216 15.36 0 30.208 6.144 42.496 15.36l9.216-33.28c-17.92-12.288-36.352-17.92-57.344-17.92s-36.352 6.144-51.712 17.92c-12.288 12.288-24.064 36.352-24.064 57.344 0 24.064 9.216 39.424 27.136 54.272 0 0 30.208 20.992 48.64 30.208 17.92 12.288 27.136 24.064 27.136 39.424 0 12.288-3.072 20.992-12.288 27.136-9.216 6.144-17.92 3.072-27.136 3.072-15.36 0-30.208-6.144-48.64-15.36l-9.216 30.208c20.992 15.36 42.496 24.064 63.488 24.064 24.064 0 42.496-6.144 57.344-20.992 15.36-15.36 20.992-33.28 20.992-54.272 1.024-24.064-8.192-39.424-26.624-54.272z" fill="#E58E01" p-id="12978"></path></svg>