<?xml version="1.0" standalone="no"?><!DOCTYPE svg PUBLIC "-//W3C//DTD SVG 1.1//EN" "http://www.w3.org/Graphics/SVG/1.1/DTD/svg11.dtd"><svg t="1769403279532" class="icon" viewBox="0 0 1024 1024" version="1.1" xmlns="http://www.w3.org/2000/svg" p-id="35867" xmlns:xlink="http://www.w3.org/1999/xlink" width="200" height="200"><path d="M511.764 131.70881A446.145595 446.145595 0 1 0 957.909595 577.854405a446.145595 446.145595 0 0 0-446.145595-446.145595z m0 519.759528a71.829935 71.829935 0 1 1 71.829935-70.936935 72.275934 72.275934 0 0 1-71.829935 70.936935z" fill="#F55E55" p-id="35868"></path><path d="M802.204736 0.54193l-168.196847 37.029966a67.813938 67.813938 0 0 0-53.090952 66.02994v120.012891l3.568997 349.778682h114.212896V223.614727h108.859902a26.322976 26.322976 0 0 0 26.768975-26.321976V26.864906A26.768976 26.768976 0 0 0 802.204736 0.54093z" fill="#F9BBB8" p-id="35869"></path><path d="M511.764 386.457579A186.93483 186.93483 0 1 0 698.69983 572.94741a186.93483 186.93483 0 0 0-186.93483-186.489831z m0 264.56476a71.382935 71.382935 0 1 1 71.382935-71.382935 71.382935 71.382935 0 0 1-71.382935 71.382935z" fill="#F9BBB8" p-id="35870"></path></svg>