<?xml version="1.0" standalone="no"?><!DOCTYPE svg PUBLIC "-//W3C//DTD SVG 1.1//EN" "http://www.w3.org/Graphics/SVG/1.1/DTD/svg11.dtd"><svg t="1769405320300" class="icon" viewBox="0 0 1024 1024" version="1.1" xmlns="http://www.w3.org/2000/svg" p-id="15142" xmlns:xlink="http://www.w3.org/1999/xlink" width="200" height="200"><path d="M433.152 223.4368c0-4.4032-0.1024-4.1984 16.384-19.6608 6.3488-5.9392 15.2576-14.4384 19.8656-18.944 4.5056-4.5056 15.872-15.36 25.1904-24.064s21.0944-19.8656 26.112-24.6784c5.12-4.8128 12.6976-11.9808 16.896-15.7696s11.6736-10.9568 16.4864-15.7696 16.7936-16.384 26.624-25.7024c9.728-9.3184 18.944-18.1248 20.3776-19.5584 2.048-2.048 3.072-2.56 4.4032-1.8432 2.6624 1.536 6.7584-0.1024 8.704-3.3792 0.9216-1.6384 3.1744-3.8912 5.0176-4.9152 1.8432-1.1264 3.3792-2.56 3.3792-3.3792 0-0.7168 1.9456-3.1744 4.4032-5.5296 2.3552-2.2528 5.4272-5.3248 6.7584-6.7584 1.3312-1.536 2.9696-2.7648 3.7888-2.7648s1.4336-0.4096 1.4336-1.024c0-0.512 1.536-1.7408 3.2768-2.6624 3.072-1.536 5.4272-1.6384 27.4432-0.512 13.2096 0.7168 27.3408 1.8432 31.232 2.6624 7.168 1.3312 14.4384 2.048 38.912 3.6864 38.2976 2.4576 44.9536 2.9696 55.808 3.9936 6.4512 0.6144 17.2032 1.536 23.7568 2.048 6.5536 0.4096 12.4928 1.1264 13.2096 1.6384 0.7168 0.4096 8.9088 1.1264 18.2272 1.6384s18.0224 1.024 19.3536 1.1264c2.56 0.2048 6.7584 7.8848 7.9872 14.848 0.4096 2.048 1.9456 6.144 3.584 8.9088 1.536 2.8672 3.072 6.7584 3.4816 8.704s1.8432 5.632 3.1744 8.192 3.6864 8.192 5.4272 12.4928l2.9696 7.9872h-2.7648c-1.4336 0-3.6864 0.7168-4.9152 1.536-1.1264 0.8192-4.3008 2.2528-7.0656 3.1744-3.6864 1.2288-6.7584 3.3792-11.776 8.4992-6.2464 6.5536-7.168 7.0656-13.824 8.6016-3.8912 0.9216-9.1136 2.7648-11.6736 4.1984s-5.9392 3.3792-7.68 4.3008c-1.6384 0.9216-3.9936 2.4576-5.12 3.4816-1.1264 0.9216-5.12 2.56-9.0112 3.584-3.7888 0.9216-7.2704 2.3552-7.68 3.072-0.8192 1.4336-18.7392 10.24-23.1424 11.3664-1.6384 0.4096-4.1984 1.3312-5.632 2.048-1.4336 0.8192-3.1744 1.4336-3.8912 1.4336s-3.6864 2.4576-6.656 5.5296c-5.5296 5.632-12.0832 8.8064-20.7872 10.24-3.8912 0.7168-8.9088 3.6864-17.3056 10.24-2.1504 1.6384-6.3488 3.584-9.728 4.3008-3.2768 0.8192-7.68 2.1504-9.8304 3.072-3.8912 1.6384-10.752 7.7824-10.752 9.6256 0 0.512-1.2288 1.3312-2.7648 1.6384-4.096 1.024-8.3968 3.2768-11.4688 6.144-1.4336 1.3312-3.1744 2.4576-3.7888 2.4576-2.3552 0-12.288 4.608-14.336 6.5536-6.4512 6.4512-5.4272 6.2464-28.5696 6.8608-11.776 0.4096-64.7168 0.7168-117.4528 0.8192l-96.0512 0.1024v-3.8912z" fill="#DFE95A" p-id="15143"></path><path d="M689.152 998.2976c-2.56-0.512-5.9392-0.6144-7.4752-0.3072-3.584 0.7168-13.0048-2.56-13.0048-4.5056 0-1.536 3.072-1.4336 17.92 0.4096l5.2224 0.6144 1.1264-5.9392c0.6144-3.3792 1.8432-9.216 2.6624-13.2096 0.8192-3.8912 2.2528-11.0592 3.1744-15.872 4.4032-24.2688 7.8848-42.1888 9.3184-48.128 0.8192-3.6864 2.2528-10.24 3.1744-14.5408 1.3312-6.656 1.9456-7.9872 3.584-7.9872 1.024 0 1.9456 0.3072 1.9456 0.6144 0 0.4096-1.6384 8.8064-3.584 18.7392-3.2768 16.7936-4.8128 24.1664-8.2944 39.5264-1.4336 6.144-2.4576 11.9808-5.0176 28.16-0.7168 4.8128-1.8432 10.3424-2.4576 12.288s-1.3312 5.3248-1.6384 7.4752c-0.3072 2.048-0.9216 3.7888-1.3312 3.6864s-2.7648-0.512-5.3248-1.024zM655.872 993.792c-0.512-0.2048-4.8128-1.4336-9.4208-2.6624-5.7344-1.4336-8.4992-2.6624-8.4992-3.6864 0-1.2288 1.536-1.3312 9.0112-0.7168 9.9328 0.7168 16.4864 2.9696 16.5888 5.8368 0 1.3312-0.8192 1.7408-3.2768 1.6384-1.8432 0-3.7888-0.2048-4.4032-0.4096zM619.008 989.184c-0.3072-0.512 0.1024-1.024 0.9216-1.024s1.8432 0.512 2.1504 1.024c0.3072 0.6144-0.1024 1.024-0.9216 1.024s-1.8432-0.4096-2.1504-1.024zM622.592 987.4432c-3.072-0.8192-11.3664-2.3552-18.3296-3.3792-14.6432-2.2528-15.4624-2.4576-15.4624-4.608 0-2.048 6.9632-2.048 13.7216 0 2.7648 0.8192 6.656 1.536 8.704 1.536 3.1744 0 9.6256 1.2288 20.3776 3.7888 1.3312 0.3072 2.2528 1.3312 2.2528 2.4576 0 2.3552-2.9696 2.4576-11.264 0.2048zM577.8432 979.968c-1.2288-0.512-5.12-1.2288-8.704-1.6384-3.584-0.3072-11.4688-1.7408-17.6128-3.072s-11.3664-2.4576-11.5712-2.4576c-0.1024 0-0.3072-0.7168-0.3072-1.536 0-1.1264 1.1264-1.536 3.7888-1.536 5.7344 0 20.48 2.048 27.4432 3.7888 12.3904 3.072 13.824 3.584 13.824 5.632s-2.9696 2.3552-6.8608 0.8192zM518.0416 969.728c-3.6864-0.512-8.704-1.536-11.264-2.3552-2.9696-1.024-8.3968-1.536-15.4624-1.536-9.6256 0-11.264-0.2048-13.7216-2.1504-1.536-1.1264-3.3792-2.1504-4.096-2.1504-0.8192 0-1.4336-1.024-1.4336-2.1504 0-2.048 0.4096-2.1504 5.4272-1.6384 2.8672 0.4096 10.4448 1.6384 16.5888 2.7648 6.2464 1.1264 16.896 3.072 23.8592 4.3008 10.5472 1.8432 12.4928 2.4576 12.4928 4.096 0 2.048-1.024 2.1504-12.3904 0.8192zM466.432 960c-0.512-0.2048-2.2528-0.6144-3.7888-0.9216-4.608-1.024-3.584-3.6864 1.2288-3.6864 3.6864 0 4.096 0.3072 4.096 2.56 0 1.4336-0.1024 2.56-0.2048 2.4576-0.2048 0-0.7168-0.2048-1.3312-0.4096zM441.344 955.2896c-1.4336-0.6144-4.5056-0.8192-6.8608-0.512-2.56 0.3072-4.4032 0.2048-4.4032-0.4096 0-0.512-1.1264-1.2288-2.56-1.6384-1.4336-0.3072-2.56-1.2288-2.56-2.048 0-2.048 8.4992-1.8432 16.896 0.2048 5.2224 1.3312 6.656 2.048 6.656 3.584 0 2.1504-2.9696 2.4576-7.168 0.8192zM410.4192 949.5552c-3.6864-0.9216-2.048-3.3792 2.2528-3.3792 3.3792 0 4.096 0.3072 4.096 2.048 0 2.048-2.048 2.4576-6.3488 1.3312zM380.416 945.5616c-6.144-1.3312-16.6912-3.072-23.3472-3.9936-6.656-0.8192-13.0048-1.9456-14.0288-2.56-1.024-0.512-4.3008-1.024-7.168-1.024-5.0176 0-11.264-2.9696-11.264-5.3248 0-1.1264 7.4752-1.024 10.4448 0.1024 3.3792 1.3312 18.8416 4.096 32.0512 5.7344 6.2464 0.8192 15.6672 2.3552 20.992 3.4816s10.9568 2.1504 12.5952 2.1504c2.048 0 2.7648 0.512 2.7648 2.048 0 1.8432-0.6144 2.048-5.8368 1.9456-3.2768-0.1024-10.9568-1.2288-17.2032-2.56zM293.6832 932.2496c2.8672-1.3312 0.8192-2.56-4.096-2.3552-3.7888 0.1024-6.656-0.4096-9.5232-1.8432-2.2528-1.1264-6.656-2.3552-9.728-2.7648-8.3968-1.024-10.24-1.7408-10.24-3.3792 0-1.3312 1.024-1.4336 5.9392-0.9216 3.1744 0.3072 9.5232 1.024 14.0288 1.536s9.8304 1.4336 11.776 1.9456c1.9456 0.6144 6.2464 1.6384 9.5232 2.2528 4.7104 0.9216 5.8368 1.536 5.8368 3.1744s-0.7168 1.9456-4.3008 1.8432c-2.4576-0.1024-5.7344 0.2048-7.4752 0.512-1.6384 0.3072-2.4576 0.3072-1.7408 0zM251.6992 922.9312c-1.024-0.2048-1.8432-1.1264-1.8432-1.9456 0-1.024 1.3312-1.4336 4.608-1.4336 3.8912 0 4.608 0.3072 4.608 2.048 0 1.536-0.6144 2.048-2.7648 1.9456-1.6384-0.1024-3.6864-0.3072-4.608-0.6144zM557.1584 920.576c-4.608-1.024-6.9632-2.7648-17.1008-13.0048-2.4576-2.4576-4.8128-4.4032-5.4272-4.4032-0.512 0-1.2288-0.8192-1.6384-1.9456-0.8192-2.6624-8.8064-10.3424-10.752-10.3424-2.3552 0-8.9088-6.2464-9.5232-9.216-0.6144-2.56-7.9872-11.264-9.6256-11.264-1.2288 0-6.7584-5.3248-8.192-7.9872-0.7168-1.2288-1.3312-3.072-1.3312-4.096s-1.1264-2.9696-2.56-4.3008-2.56-2.8672-2.56-3.584c0-0.6144-1.3312-2.2528-2.9696-3.6864-2.048-1.8432-3.3792-4.4032-4.3008-8.3968-0.8192-3.1744-1.7408-5.8368-2.1504-5.8368-0.512 0-0.8192-1.8432-0.8192-4.096s-0.4096-4.096-1.024-4.096c-0.512 0-1.024-1.8432-1.024-4.096v-3.9936l5.9392-0.3072 5.8368-0.3072 0.3072-3.6864c0.3072-3.3792 0.7168-3.8912 4.7104-5.4272 2.3552-0.9216 8.2944-1.9456 13.0048-2.2528 11.264-0.8192 15.2576-2.048 15.2576-4.7104 0-2.048 0.1024-2.048 94.208-1.7408 51.8144 0.2048 94.208 0.7168 94.208 1.2288 0 0.4096 1.6384 0.7168 3.584 0.7168 2.3552 0 3.584 0.512 3.584 1.4336 0 2.8672 17.6128 2.56 19.456-0.4096 1.024-1.7408 7.68-2.9696 15.5648-3.072 5.3248 0 7.0656 0.4096 7.7824 1.6384 0.6144 1.1264 1.1264 1.3312 1.6384 0.512 0.4096-0.6144 3.2768-1.1264 6.3488-1.1264h5.5296v3.584c0 4.8128-2.56 7.0656-10.4448 9.5232-7.0656 2.2528-17.6128 7.4752-20.7872 10.4448-1.1264 1.024-3.8912 2.6624-6.0416 3.7888-5.4272 2.56-7.4752 5.632-9.216 14.1312-0.8192 3.9936-2.2528 11.0592-3.1744 15.872-4.9152 24.2688-5.7344 27.648-7.3728 27.648-1.4336 0-1.536-1.024-0.9216-7.3728 0.3072-4.096 1.3312-9.5232 2.048-12.0832 0.8192-2.56 2.048-8.704 2.7648-13.824 0.6144-5.0176 1.8432-10.9568 2.56-13.2096 0.8192-2.1504 1.4336-4.096 1.4336-4.3008s-1.536 0.512-3.2768 1.6384c-1.8432 1.1264-5.12 2.56-7.2704 3.1744-2.1504 0.512-4.7104 1.8432-5.7344 2.8672-2.4576 2.4576-22.528 14.4384-24.2688 14.4384-0.7168 0-3.2768 1.8432-5.632 4.096-2.4576 2.2528-4.9152 4.096-5.5296 4.096-1.536 0-9.0112 4.096-10.24 5.5296-0.512 0.7168-3.2768 2.4576-6.144 3.8912-14.6432 7.168-19.6608 10.1376-21.7088 12.4928-1.536 1.7408-3.3792 2.6624-5.3248 2.6624-2.048 0-4.608 1.3312-7.7824 4.096-2.56 2.2528-5.3248 4.096-6.0416 4.096s-2.9696 1.8432-5.0176 4.096c-2.6624 2.9696-4.4032 4.096-6.656 4.096-1.6384 0-4.8128 1.2288-6.9632 2.7648-2.1504 1.4336-6.4512 3.7888-9.5232 5.12-2.9696 1.3312-6.144 3.1744-6.9632 3.9936-4.608 4.5056-13.7216 6.3488-22.7328 4.5056zM238.592 920.064c-0.8192-0.2048-5.9392-0.9216-11.264-1.536-5.3248-0.7168-11.5712-1.8432-13.824-2.56s-8.192-1.6384-13.312-2.048c-5.0176-0.3072-11.1616-1.1264-13.5168-1.6384s-9.3184-1.6384-15.36-2.4576c-7.7824-1.1264-11.5712-2.1504-12.9024-3.4816-1.8432-1.8432-5.9392-18.7392-7.8848-32.8704-2.56-18.7392-2.56-17.408-0.1024-17.408 1.536 0 2.1504 0.6144 2.1504 2.3552 0 1.3312 0.8192 6.656 1.9456 11.9808 1.024 5.3248 2.4576 13.4144 3.1744 17.8176 1.6384 11.0592 2.4576 12.9024 5.5296 12.9024 1.4336 0 2.8672 0.512 3.1744 1.024 0.3072 0.6144 1.6384 1.024 2.8672 1.024s4.1984 0.7168 6.5536 1.536 8.6016 1.9456 13.824 2.56 11.3664 1.6384 13.6192 2.2528 7.7824 1.7408 12.288 2.4576 10.0352 1.7408 12.288 2.3552 6.0416 1.1264 8.4992 1.1264c3.8912 0 4.3008 0.2048 4.3008 2.56 0 1.4336-0.1024 2.4576-0.2048 2.4576-0.2048-0.1024-1.024-0.3072-1.8432-0.4096zM146.5344 845.824c-1.4336-6.8608-1.4336-7.168 0.8192-7.168 1.8432 0 3.1744 3.9936 3.1744 10.0352 0 4.5056-2.8672 2.3552-3.9936-2.8672zM142.0288 821.0432c-0.9216-4.096-2.3552-12.0832-3.2768-17.7152-0.8192-5.632-2.2528-13.9264-2.9696-18.432-4.5056-24.9856-4.3008-23.04-1.8432-23.04 2.3552 0 4.7104 8.6016 6.8608 25.6 0.9216 7.0656 2.56 18.0224 3.6864 24.4736 2.3552 13.9264 2.4576 16.4864 0.512 16.4864-0.9216 0-1.9456-2.4576-2.9696-7.3728zM797.4912 752.9472c-0.2048-20.1728-0.512-146.3296-0.6144-280.2688-0.2048-134.0416-0.512-244.0192-0.8192-244.5312-0.3072-0.4096-39.0144-0.8192-86.016-0.8192-75.264 0-85.4016-0.2048-85.4016-1.536 0-0.8192 0.1024-1.6384 0.3072-1.7408 0.1024 0 9.216-0.4096 20.1728-0.7168 21.504-0.6144 20.5824-0.4096 27.0336-6.8608 2.048-1.9456 11.9808-6.5536 14.336-6.5536 0.6144 0 2.3552-1.1264 3.7888-2.4576 3.2768-3.072 9.0112-6.144 11.6736-6.3488 1.024-0.1024 2.1504-0.7168 2.3552-1.4336 0.9216-2.56 7.168-8.0896 10.9568-9.6256 2.1504-0.9216 6.5536-2.2528 9.8304-3.072 3.3792-0.7168 7.5776-2.6624 9.728-4.3008 8.3968-6.5536 13.4144-9.5232 17.3056-10.24 8.704-1.4336 15.2576-4.608 20.7872-10.24 2.9696-3.072 5.9392-5.5296 6.656-5.5296s2.4576-0.6144 3.8912-1.4336c1.4336-0.7168 3.9936-1.6384 5.632-2.048 4.4032-1.1264 22.3232-9.9328 23.1424-11.3664 0.4096-0.7168 3.8912-2.1504 7.68-3.072 3.8912-1.024 7.8848-2.6624 9.0112-3.584 1.1264-1.024 3.4816-2.56 5.12-3.4816 1.7408-0.9216 5.12-2.8672 7.68-4.3008s7.7824-3.2768 11.6736-4.1984c6.656-1.536 7.5776-2.048 13.824-8.6016 5.0176-5.0176 8.0896-7.2704 11.6736-8.4992 2.6624-0.9216 5.9392-2.2528 7.168-3.072s3.7888-1.6384 5.7344-1.8432c3.8912-0.3072 4.8128 0.9216 10.4448 14.5408 1.7408 4.1984 3.7888 9.1136 4.5056 10.752 0.7168 1.7408 2.3552 5.5296 3.584 8.6016 1.1264 2.9696 3.4816 8.192 5.0176 11.3664 1.6384 3.2768 3.6864 8.4992 4.608 11.776 0.9216 3.1744 3.2768 9.0112 5.12 13.1072 1.9456 4.096 3.6864 8.2944 3.9936 9.4208 1.3312 4.5056 5.7344 15.7696 8.704 22.2208 1.8432 3.7888 3.2768 7.2704 3.2768 7.68 0 1.1264 4.3008 11.3664 6.5536 15.5648 1.8432 3.3792 2.7648 5.9392 8.704 22.6304 1.7408 4.8128 3.9936 10.3424 5.12 12.288 1.024 1.9456 2.4576 5.632 3.1744 8.192 0.6144 2.56 2.2528 6.656 3.4816 9.216 1.3312 2.56 3.3792 7.8848 4.7104 11.776 1.2288 3.9936 2.8672 8.2944 3.584 9.728 2.56 5.0176 6.4512 14.0288 7.9872 18.5344 2.8672 8.2944 9.728 26.0096 11.3664 29.0816 0.9216 1.7408 1.6384 4.3008 1.6384 5.7344 0 3.1744-7.4752 13.9264-11.5712 16.4864-1.4336 1.024-2.8672 2.6624-3.2768 3.7888-0.3072 1.024-1.536 2.1504-2.7648 2.4576-1.7408 0.512-1.9456 1.1264-1.4336 3.2768 0.6144 2.3552 0.4096 2.6624-1.4336 2.048-1.2288-0.4096-2.048-0.2048-2.048 0.6144 0 0.6144-2.6624 3.584-5.8368 6.4512-3.2768 2.8672-7.0656 6.3488-8.6016 7.7824-5.8368 5.632-6.0416 5.7344-6.0416 2.1504 0-2.1504 0.512-3.1744 1.536-3.1744 0.8192 0 1.536-0.8192 1.536-1.8432 0-2.3552 6.4512-9.8304 17.92-20.6848 5.0176-4.8128 11.1616-11.0592 13.6192-14.0288 3.7888-4.5056 4.3008-5.632 3.2768-7.3728-0.6144-1.2288-2.8672-6.4512-5.0176-11.5712-2.2528-5.2224-6.3488-14.848-9.216-21.2992-2.8672-6.3488-5.2224-12.288-5.2224-13.0048 0-2.6624-1.536-1.1264-3.8912 3.584-1.2288 2.6624-2.2528 5.5296-2.2528 6.3488 0 2.1504-2.048 4.096-4.3008 4.096-1.024 0-1.8432 0.4096-1.8432 0.9216 0 0.9216-2.8672 2.1504-10.752 4.4032-4.8128 1.3312-5.12 1.6384-6.4512 6.2464-0.7168 2.6624-1.7408 4.8128-2.1504 4.8128-0.512 0-1.4336 1.3312-2.048 2.8672-1.1264 2.7648-12.4928 14.5408-14.0288 14.5408-0.3072 0-2.6624 1.7408-5.0176 3.8912-2.3552 2.048-5.9392 5.0176-7.8848 6.5536-1.9456 1.4336-4.9152 5.4272-6.5536 8.704-2.4576 4.9152-3.9936 6.4512-8.6016 9.216-8.704 5.0176-10.9568 7.168-11.5712 10.752-0.9216 5.632-5.2224 16.896-7.2704 19.1488-1.1264 1.2288-2.7648 2.1504-3.7888 2.1504-2.4576 0-6.0416 7.3728-6.0416 12.1856 0 2.048 1.3312 7.168 2.9696 11.3664 3.2768 8.6016 12.1856 28.7744 13.0048 29.5936 0.2048 0.3072 5.632-4.9152 11.9808-11.4688s12.288-11.9808 13.312-11.9808 1.7408-0.8192 1.7408-2.048c0-1.3312 0.7168-2.048 2.048-2.048 1.2288 0 2.048-0.7168 2.048-1.7408s2.2528-4.096 5.0176-6.9632c6.2464-6.4512 7.7824-7.68 9.8304-7.68 0.8192 0 1.536-0.7168 1.536-1.6384 0-1.9456 9.1136-12.6976 10.8544-12.6976 0.6144 0 1.4336-0.9216 1.7408-2.048 0.3072-1.4336 1.4336-2.048 3.1744-2.048 3.584 0 3.3792 1.024-1.1264 6.2464-4.3008 4.9152-30.0032 31.6416-42.8032 44.4416-4.5056 4.608-9.8304 10.8544-11.776 14.1312-1.9456 3.1744-3.7888 5.8368-4.1984 5.8368s0.6144 2.6624 2.2528 5.9392c1.6384 3.1744 2.9696 6.4512 2.9696 7.168 0 0.8192 0.9216 2.6624 2.1504 4.096 3.6864 4.8128 7.0656 10.5472 7.0656 11.8784 0 0.7168 1.1264 2.3552 2.56 3.6864s2.56 3.1744 2.56 4.096 0.9216 2.7648 2.048 4.096 2.3552 3.4816 2.6624 4.7104c0.3072 1.3312 1.7408 3.072 3.072 3.9936 1.3312 0.8192 2.4576 2.2528 2.4576 3.1744 0 1.4336 5.5296 11.4688 10.1376 18.3296 1.1264 1.7408 3.4816 5.8368 5.2224 9.216 1.8432 3.3792 4.096 7.0656 5.0176 8.192 2.56 2.8672 13.4144 21.2992 13.4144 22.7328 0 0.6144 0.7168 1.6384 1.536 2.3552s3.3792 4.608 5.632 8.704 4.8128 7.9872 5.632 8.704 1.536 1.8432 1.536 2.56 1.6384 3.7888 3.6864 6.7584c2.048 3.072 4.8128 7.68 6.144 10.4448 1.3312 2.6624 2.9696 4.8128 3.4816 4.8128 0.6144 0 1.536 1.2288 2.1504 2.8672 2.56 6.2464 3.584 7.9872 6.2464 11.264 1.6384 1.8432 2.8672 3.9936 2.8672 4.7104s1.3312 3.1744 2.8672 5.3248 3.4816 5.4272 4.1984 7.2704c1.2288 3.072 1.1264 3.3792-2.1504 6.4512-1.8432 1.7408-5.4272 4.1984-7.9872 5.5296s-6.4512 4.096-8.704 6.144-5.2224 4.096-6.656 4.4032c-2.56 0.6144-9.5232 4.9152-14.5408 9.1136-1.536 1.2288-5.12 3.072-7.9872 3.9936-3.072 1.024-5.8368 2.7648-6.8608 4.1984-0.9216 1.4336-2.56 2.4576-3.9936 2.4576-2.048 0-11.1616 5.2224-12.6976 7.2704-0.8192 1.024-6.9632 3.9936-8.4992 3.9936-0.7168 0-2.8672 1.6384-4.8128 3.584s-3.9936 3.584-4.608 3.584-2.6624 1.3312-4.608 2.8672c-1.9456 1.6384-5.7344 3.7888-8.4992 4.8128-2.6624 1.024-7.9872 3.8912-11.776 6.3488-3.7888 2.56-8.704 5.2224-10.8544 6.0416-2.2528 0.8192-5.4272 2.56-7.168 3.8912-4.4032 3.2768-23.04 14.9504-24.064 14.9504-0.4096 0-4.1984 2.2528-8.3968 5.12-4.096 2.7648-8.0896 5.12-8.6016 5.12-0.6144 0-3.4816 1.7408-6.3488 3.8912-2.8672 2.048-7.5776 5.12-10.5472 6.656-2.9696 1.6384-5.5296 3.7888-5.8368 4.9152-0.3072 1.024-1.1264 1.9456-1.8432 1.9456-1.1264 0-1.4336-7.3728-1.7408-36.5568zM130.6624 753.5616c-0.9216-3.9936-1.6384-8.192-1.6384-9.3184s-0.7168-5.12-1.536-8.9088c-1.4336-6.2464-8.704-50.8928-8.704-53.3504 0-0.512 0.8192-1.024 1.9456-1.024 1.536 0 2.048 1.024 2.56 4.9152 0.4096 2.6624 1.3312 8.4992 2.1504 13.0048s1.9456 11.6736 2.6624 15.872c0.6144 4.1984 1.8432 10.9568 2.6624 14.848 1.7408 8.4992 4.4032 25.7024 4.4032 28.9792 0 1.2288-0.6144 2.2528-1.4336 2.2528-0.9216 0-1.9456-2.56-3.072-7.2704zM178.176 688.128c0-1.1264-0.4096-2.048-1.024-2.048-0.512 0-1.024-0.7168-1.024-1.536 0-0.9216-0.8192-2.56-1.9456-3.6864l-1.9456-2.048-2.048 2.56c-1.6384 2.1504-2.8672 2.6624-6.7584 2.6624-4.5056 0-4.7104-0.1024-4.7104-3.072 0-1.6384-0.9216-4.8128-2.1504-7.0656-1.536-2.9696-2.1504-6.7584-2.6624-15.1552-0.4096-8.6016-1.024-12.1856-2.9696-16.2816-1.2288-2.7648-2.6624-7.5776-3.072-10.4448-0.4096-2.9696-1.1264-5.632-1.536-5.9392-0.512-0.3072-0.9216-1.8432-0.9216-3.4816s-1.4336-5.2224-3.1744-7.8848c-2.8672-4.608-3.072-5.3248-2.4576-11.5712 0.6144-7.168-0.7168-16.5888-2.4576-17.2032-0.6144-0.2048-1.1264-1.6384-1.1264-3.2768 0-3.1744-2.9696-9.216-4.608-9.216-1.024 0-3.072-3.9936-5.632-10.9568-0.8192-2.048-0.9216-5.2224-0.512-8.4992 0.6144-4.608 0.4096-5.7344-1.9456-9.216-1.6384-2.4576-2.6624-5.5296-2.6624-7.7824 0-2.048-0.6144-5.12-1.4336-6.8608-0.8192-1.8432-1.7408-4.4032-2.048-5.8368-1.8432-8.8064-4.096-17.3056-5.2224-20.1728-0.8192-1.7408-2.3552-7.0656-3.4816-11.776-2.56-10.752-5.7344-19.968-7.4752-21.6064-0.7168-0.7168-2.6624-2.3552-4.3008-3.584-2.9696-2.2528-2.9696-2.2528-4.4032-0.2048-0.8192 1.1264-2.3552 2.048-3.3792 2.048-2.7648 0-1.536 2.8672 1.3312 3.2768 1.9456 0.3072 2.2528 1.024 2.56 5.9392 0.2048 3.072-0.2048 6.5536-0.9216 7.8848-1.024 1.8432-1.024 3.8912-0.1024 9.216 1.2288 6.8608 1.536 9.5232 2.8672 21.0944 0.6144 4.8128 0.4096 5.8368-0.9216 5.8368-1.6384 0-2.2528-1.7408-3.2768-9.728-0.4096-2.7648-1.3312-7.168-2.048-9.728-0.8192-2.56-1.9456-8.4992-2.56-13.312s-1.4336-9.4208-1.7408-10.24-0.7168-3.6864-0.9216-6.4512c-0.3072-5.9392-5.2224-32.256-7.0656-38.6048-0.8192-2.56-1.4336-6.9632-1.4336-9.728 0-2.8672-0.512-7.3728-1.1264-10.24-2.9696-13.2096-3.6864-17.2032-6.0416-34.304-2.4576-16.9984-3.1744-21.4016-4.096-23.8592-0.512-1.3312-1.536-6.144-2.1504-10.5472-2.56-17.408-3.072-20.7872-5.12-31.6416-1.1264-6.144-2.9696-17.5104-4.1984-25.088-3.3792-22.016-3.6864-23.6544-5.9392-32.256-1.1264-4.5056-2.1504-9.4208-2.1504-10.9568 0-4.3008-2.048-16.7936-4.1984-25.7024-1.1264-4.3008-2.4576-12.1856-2.9696-17.5104s-2.1504-15.0528-3.4816-21.7088c-1.3312-6.7584-2.7648-15.0528-3.1744-18.6368-0.3072-3.4816-1.2288-8.4992-2.048-11.0592-2.048-6.9632-3.072-22.528-1.6384-24.3712 0.7168-0.8192 4.1984-2.4576 7.8848-3.6864 3.584-1.2288 6.7584-2.6624 7.0656-3.072 0.3072-0.512 3.8912-1.9456 7.9872-3.1744 4.096-1.1264 8.4992-2.7648 9.9328-3.4816 1.4336-0.8192 6.4512-3.072 11.264-5.12 4.8128-1.9456 10.5472-4.5056 12.8-5.632s4.5056-2.048 4.9152-2.048c1.6384 0 24.6784-9.4208 28.8768-11.776 2.2528-1.3312 6.144-3.072 8.704-3.8912 8.192-2.7648 27.9552-11.0592 36.352-15.1552 4.4032-2.1504 8.704-3.9936 9.4208-3.9936 0.8192 0 3.7888-1.2288 6.656-2.6624s7.7824-3.4816 10.9568-4.5056 7.3728-2.56 9.3184-3.3792c1.9456-0.9216 6.3488-2.8672 9.728-4.3008 7.3728-3.2768 12.6976-5.632 15.0528-6.7584 1.024-0.512 2.3552-0.9216 2.8672-0.9216 0.6144 0 3.9936-1.4336 7.4752-3.1744 3.4816-1.6384 11.264-4.7104 17.3056-6.656 6.0416-2.048 11.4688-4.3008 12.1856-5.12 0.6144-0.8192 2.2528-1.4336 3.584-1.4336 2.4576 0 15.7696 6.5536 21.4016 10.6496 3.6864 2.6624 5.12 3.584 10.5472 6.4512 2.2528 1.3312 4.5056 2.7648 4.8128 3.3792 0.4096 0.6144 2.3552 1.7408 4.4032 2.6624 4.4032 1.8432 17.2032 9.216 20.1728 11.6736 1.1264 0.9216 5.7344 3.6864 10.24 6.0416 4.5056 2.4576 11.1616 6.3488 14.848 8.8064 3.6864 2.3552 10.3424 6.2464 14.848 8.704 4.5056 2.3552 8.3968 4.608 8.704 5.0176 0.3072 0.512 2.4576 1.8432 4.8128 3.072 2.3552 1.1264 4.5056 2.56 4.9152 3.072 0.3072 0.6144 3.4816 2.4576 6.9632 4.3008 3.4816 1.7408 9.4208 5.2224 13.2096 7.68 8.6016 5.5296 14.5408 8.6016 16.6912 8.6016 2.2528 0 10.0352-4.096 11.0592-5.7344 0.4096-0.8192 1.3312-1.4336 1.8432-1.4336 1.3312 0 15.6672-6.8608 20.3776-9.728 3.9936-2.4576 18.5344-10.3424 28.3648-15.36 3.3792-1.7408 6.8608-3.6864 7.68-4.3008 0.7168-0.6144 7.68-4.4032 15.5648-8.3968 7.7824-4.096 16.0768-8.6016 18.432-10.24 2.2528-1.536 9.3184-5.4272 15.4624-8.4992 6.2464-3.072 13.6192-6.8608 16.384-8.3968 6.5536-3.584 9.728-3.1744 21.4016 2.6624 1.024 0.512 4.608 1.8432 7.9872 2.9696 9.6256 3.072 18.2272 7.168 18.2272 8.8064 0 0.8192-1.024 2.4576-2.3552 3.6864s-10.3424 9.8304-20.1728 19.1488c-9.728 9.3184-21.7088 20.8896-26.5216 25.7024s-12.288 11.9808-16.4864 15.7696-11.776 10.9568-16.896 15.7696c-5.0176 4.8128-16.7936 15.9744-26.112 24.6784s-20.6848 19.5584-25.1904 24.064c-4.608 4.5056-13.5168 13.0048-19.8656 18.944-17.5104 16.384-18.3296 17.408-14.336 17.408 1.3312 0 1.8432 0.512 1.4336 1.536-0.512 1.3312-13.312 1.536-106.496 1.536H227.328v81.7152c-0.1024 128.1024-1.024 230.6048-2.2528 235.2128-0.512 2.2528-1.4336 4.4032-1.9456 4.7104s-1.2288 4.096-1.536 8.3968c-0.6144 6.9632-0.512 7.8848 1.024 7.8848 0.9216 0 2.1504 1.2288 2.6624 2.6624 0.6144 1.536 1.024 24.7808 1.024 58.88v56.2176h-3.584c-2.8672 0-3.584-0.4096-3.584-2.048 0-1.4336-0.7168-2.048-2.4576-2.048-2.1504 0-2.4576-0.512-2.9696-6.4512-0.9216-9.8304 0.2048-17.92 2.4576-18.6368 1.7408-0.6144 1.9456-1.7408 1.8432-10.0352-0.1024-9.6256-0.512-9.216-2.56 2.3552-0.3072 1.9456-1.7408 6.144-3.1744 9.216-1.4336 3.1744-2.6624 7.7824-2.7648 10.5472-0.2048 5.7344-1.3312 6.7584-9.3184 8.3968l-5.12 1.024-0.3072 4.5056c-0.512 6.656-4.9152 10.3424-12.3904 10.3424-3.4816 0-4.1984-0.3072-4.1984-2.048zM87.1424 433.2544c-0.6144-1.1264-1.1264-3.072-1.1264-4.4032s-0.9216-3.4816-2.048-4.9152l-2.048-2.56v8.192c0 10.0352 0.512 12.0832 3.3792 13.312 2.048 0.9216 2.2528 0.7168 2.56-3.2768 0.2048-2.3552-0.2048-5.2224-0.7168-6.3488zM116.8384 670.72c-1.536-7.0656-1.4336-8.192 0.8192-8.192 1.4336 0 2.048 1.024 2.56 4.7104 0.9216 7.0656 0.8192 8.6016-0.8192 8.6016-0.9216 0-1.8432-1.9456-2.56-5.12zM115.712 657.92c0-0.7168-0.7168-1.8432-1.536-2.3552-1.7408-0.9216-3.584-10.1376-3.584-17.8176 0-4.096 0.3072-4.9152 1.8432-4.9152 2.2528 0 3.7888 4.1984 5.3248 15.0528 1.3312 9.8304 1.3312 11.5712-0.512 11.5712-0.8192 0-1.536-0.7168-1.536-1.536z" fill="#08BDD4" p-id="15144"></path><path d="M107.6224 616.2432c-0.6144-2.9696-1.536-8.6016-2.1504-12.5952-0.6144-3.8912-1.8432-10.3424-2.6624-14.1312-0.9216-3.8912-1.3312-8.0896-1.024-9.5232 0.4096-1.3312 0-3.7888-0.7168-5.3248-0.8192-1.536-1.7408-5.3248-2.048-8.3968-0.4096-3.072-1.6384-10.9568-2.8672-17.408-1.1264-6.4512-2.3552-14.2336-2.6624-17.1008-0.512-4.9152-0.4096-5.4272 1.536-5.4272 2.1504 0 3.2768 3.3792 3.2768 9.8304 0 1.8432 0.4096 4.5056 1.024 6.0416 0.512 1.4336 1.4336 6.8608 2.048 12.0832 1.2288 11.0592 2.8672 19.968 4.1984 22.4256 1.024 2.1504 2.4576 10.5472 4.5056 27.9552 1.8432 16.384 1.8432 16.896 0.1024 16.896-1.024 0-1.8432-1.9456-2.56-5.3248zM296.96 464.384c0-4.096 2.4576-5.0176 3.4816-1.2288s0.7168 4.8128-1.4336 4.8128c-1.6384 0-2.048-0.7168-2.048-3.584zM363.52 370.176c0-2.8672 0.4096-3.584 2.048-3.584 2.1504 0 2.4576 1.024 1.4336 4.9152-1.024 3.6864-3.4816 2.7648-3.4816-1.3312zM685.056 299.008c0-0.512-0.7168-1.024-1.536-1.024s-1.536-0.7168-1.536-1.536c0-1.024 1.1264-1.536 3.584-1.536 2.8672 0 3.584 0.4096 3.584 1.9456 0 1.024-0.7168 2.2528-1.6384 2.56-2.1504 0.8192-2.4576 0.8192-2.4576-0.4096z" fill="#08BDD4" p-id="15145"></path><path d="M689.152 997.6832c-12.3904-1.3312-31.0272-4.5056-32.9728-5.632-1.3312-0.7168-4.1984-1.4336-6.4512-1.4336-6.144-0.2048-21.8112-2.2528-23.1424-2.9696-1.7408-1.1264-14.4384-3.584-18.432-3.584-1.9456 0-5.9392-0.6144-8.704-1.4336-2.7648-0.7168-7.5776-1.4336-10.6496-1.536-3.072 0-7.68-0.7168-10.24-1.536-7.9872-2.56-16.6912-4.608-22.016-5.12-10.9568-1.1264-22.7328-2.7648-27.136-3.6864-2.56-0.6144-5.9392-1.2288-7.68-1.4336-1.6384-0.2048-7.8848-1.3312-13.824-2.56-16.9984-3.3792-28.7744-5.3248-34.6112-5.8368-2.9696-0.2048-6.2464-0.8192-7.168-1.2288-0.9216-0.512-4.096-1.024-6.9632-1.1264s-9.9328-1.536-15.7696-3.1744c-5.7344-1.7408-11.6736-3.072-13.2096-3.072-1.4336 0-7.68-0.9216-13.9264-1.9456-6.144-1.1264-17.408-2.9696-24.8832-4.1984-7.5776-1.2288-14.6432-2.56-15.872-3.072s-7.2704-1.4336-13.5168-2.048c-11.264-1.1264-23.8592-3.3792-29.7984-5.2224-1.7408-0.512-6.5536-1.3312-10.752-1.9456-10.3424-1.3312-17.2032-2.6624-28.0576-5.2224-5.0176-1.2288-11.776-2.3552-14.848-2.56s-7.68-0.8192-10.24-1.3312-7.5776-1.3312-11.264-1.6384c-3.6864-0.4096-9.4208-1.3312-12.8-2.2528-3.3792-0.8192-9.5232-1.9456-13.6192-2.4576s-8.2944-1.3312-9.216-1.8432-4.7104-1.2288-8.3968-1.6384c-3.6864-0.3072-8.9088-1.3312-11.776-2.048-2.7648-0.8192-9.4208-1.9456-14.6432-2.56s-11.4688-1.7408-13.824-2.56-5.3248-1.536-6.5536-1.536-2.56-0.512-2.8672-1.1264c-0.4096-0.6144-1.3312-0.8192-2.048-0.512-2.7648 1.024-4.608-2.048-6.0416-10.1376-0.8192-4.5056-2.4576-13.7216-3.6864-20.48s-2.56-14.5408-3.072-17.408c-0.512-2.7648-1.8432-10.4448-3.072-16.896-3.072-16.9984-5.7344-34.5088-7.68-49.152-0.8192-7.0656-2.3552-15.2576-3.1744-18.3296-0.9216-3.072-2.4576-11.6736-3.4816-18.944-1.024-7.3728-2.56-16.5888-3.3792-20.5824-0.8192-3.8912-2.048-10.6496-2.6624-14.848-2.7648-16.9984-4.4032-26.4192-5.7344-32.768-0.7168-3.6864-1.9456-11.264-2.56-16.896-1.9456-15.872-3.7888-27.136-5.5296-33.28-1.536-5.8368-2.56-12.288-5.3248-35.328-0.8192-7.2704-2.6624-17.408-3.9936-22.528-1.3312-5.0176-2.9696-13.7216-3.4816-19.1488-0.6144-5.4272-1.536-11.0592-2.1504-12.5952-0.512-1.4336-1.024-4.4032-1.024-6.4512s-0.4096-5.4272-1.024-7.3728c-1.7408-6.2464-4.7104-26.8288-5.7344-40.0384-0.4096-5.3248-0.3072-8.0896 0.512-8.4992 1.4336-0.9216 1.536-6.4512 0.1024-7.2704-0.6144-0.4096-1.7408-0.2048-2.4576 0.4096-1.3312 1.1264-1.536 0.512-4.7104-16.0768-0.4096-2.3552-0.4096-4.608 0.1024-4.9152s0.9216 0.4096 0.9216 1.4336c0 1.1264 0.9216 2.2528 2.048 2.56 1.6384 0.4096 1.9456 1.1264 1.536 3.072-0.9216 3.584 1.1264 4.4032 3.1744 1.2288 1.3312-2.048 1.4336-3.1744 0.6144-5.0176-0.6144-1.4336-0.7168-2.8672-0.1024-3.7888 0.512-0.8192 0.8192-2.7648 0.8192-4.5056l-0.1024-3.072-0.8192 3.3792c-1.1264 4.7104-1.9456 5.12-2.6624 1.4336-0.4096-1.8432-1.2288-3.2768-1.9456-3.2768s-1.536-0.7168-1.9456-1.536c-0.3072-0.8192-1.2288-1.2288-1.9456-0.9216-2.048 0.7168-2.7648-3.9936-2.8672-16.6912-0.1024-9.5232 1.2288-15.6672 3.3792-15.6672 0.512 0 1.2288 0.8192 1.536 1.8432 0.4096 0.9216 1.8432 3.2768 3.2768 5.2224 1.4336 1.8432 2.6624 4.608 2.8672 6.144 0.1024 1.4336 0.7168 4.7104 1.3312 7.168s0.8192 5.9392 0.4096 7.5776c-0.4096 2.048-0.3072 2.7648 0.512 2.3552 0.7168-0.512 0.9216 0.8192 0.6144 4.1984-0.4096 3.584-0.3072 4.3008 0.4096 2.8672 0.9216-1.8432 1.024-1.8432 1.024 0.6144 0.1024 1.4336 0.7168 3.1744 1.4336 3.8912 0.9216 1.1264 0.9216 1.3312 0 0.7168-0.9216-0.512-1.3312 0-1.3312 1.3312 0 1.1264 1.8432 3.3792 4.4032 5.4272 2.3552 1.8432 4.9152 3.8912 5.632 4.608 1.7408 1.6384 4.9152 10.8544 7.4752 21.8112 1.2288 4.7104 2.7648 9.8304 3.4816 11.264s1.536 4.7104 1.9456 7.3728 1.1264 5.12 1.6384 5.4272 0.7168 1.2288 0.4096 1.9456 0.2048 2.1504 1.1264 3.072 1.536 2.6624 1.4336 3.9936c-0.1024 1.2288 0.1024 2.9696 0.4096 3.7888 2.2528 5.5296 3.3792 10.3424 2.6624 10.8544-0.512 0.3072-0.1024 1.7408 1.024 3.2768 3.072 4.4032 5.3248 10.5472 4.3008 11.8784-1.4336 1.8432-1.536 4.9152-0.3072 9.4208 1.1264 3.6864 4.3008 8.192 4.3008 6.0416 0-2.048 5.12 9.5232 5.3248 11.9808 0.1024 1.536 0.512 2.56 0.9216 2.2528 1.024-0.6144 2.56 6.656 2.8672 13.9264 0.1024 3.584 0.7168 7.4752 1.2288 8.4992 0.6144 1.024 0.8192 2.6624 0.6144 3.584-0.4096 1.6384-0.512 1.6384-0.6144 0 0-1.024-0.6144-1.8432-1.1264-1.8432-1.2288 0-0.1024 2.3552 3.8912 8.3968 1.4336 2.2528 2.2528 4.5056 1.8432 5.5296-0.3072 0.9216-0.2048 2.2528 0.3072 2.8672 0.4096 0.6144 1.2288 3.4816 1.6384 6.2464 0.4096 2.8672 1.7408 7.4752 3.072 10.24 1.7408 3.8912 2.4576 7.68 2.8672 16.0768 0.6144 11.3664 2.6624 18.2272 5.4272 18.2272 0.8192 0 1.4336 0.9216 1.4336 2.1504 0 1.1264-0.4096 1.7408-1.024 1.4336-0.512-0.3072-1.024 0.3072-1.024 1.4336 0 3.072 2.7648 2.6624 5.8368-0.9216 1.4336-1.7408 3.584-3.072 4.8128-3.072 2.4576 0 6.7584 4.1984 6.7584 6.656 0 0.8192 0.512 1.536 1.024 1.536 0.6144 0 1.024 0.9216 1.024 2.048 0 2.3552 1.2288 2.56 4.4032 0.9216 4.1984-2.1504 5.8368-4.8128 5.8368-9.0112 0-5.12 1.536-6.2464 8.192-6.2464 2.2528 0 3.3792-0.6144 4.096-2.2528 0.512-1.4336 0.9216-1.7408 1.024-0.8192 0.1024 1.024 0.4096 0.9216 0.9216-0.512 0.512-1.1264 0.512-2.4576 0.1024-3.072-1.1264-1.536-0.512-3.8912 2.7648-10.4448 1.536-3.2768 2.7648-6.2464 2.6624-6.656-0.1024-0.3072 0.4096-2.8672 1.2288-5.632s1.7408-7.9872 2.048-11.6736c0.9216-11.264 1.024-11.4688 3.3792-11.8784 3.2768-0.4096 3.3792 0.512 3.2768 23.2448-0.1024 14.5408-0.3072 15.5648-3.584 16.6912-0.6144 0.2048-0.512 1.024 0.3072 1.9456 0.9216 1.2288 1.024 1.7408 0.1024 2.048-1.536 0.512-1.4336 8.0896 0.1024 9.0112 0.9216 0.512 0.9216 0.9216 0.1024 1.4336-1.9456 1.2288-1.2288 3.3792 1.1264 3.2768 1.536-0.1024 2.4576 0.6144 2.9696 2.4576 0.4096 1.4336 0.7168-21.504 0.8192-50.8928 0.1024-51.2-0.3072-59.8016-2.8672-58.1632-0.512 0.3072-1.7408-0.512-2.56-1.7408-1.2288-1.7408-1.3312-2.4576-0.3072-3.072 0.9216-0.6144 0.8192-0.8192-0.3072-0.8192-1.024 0-1.1264-0.3072-0.4096-0.8192 0.6144-0.4096 1.4336-4.1984 1.8432-8.3968 0.3072-4.1984 1.024-7.8848 1.536-8.192 2.7648-1.6384 3.1744-10.8544 3.1744-61.952 0-29.0816 0.3072-54.0672 0.6144-55.3984s1.3312-2.4576 2.1504-2.4576c1.2288 0 1.4336 24.4736 1.3312 184.5248-0.1024 101.5808-0.1024 185.2416-0.1024 186.0608 0.1024 1.2288 37.1712 1.3312 254.8736 0.7168 258.3552-0.8192 299.2128-0.512 299.2128 2.048 0 0.8192-0.7168 1.4336-1.536 1.4336s-1.536 0.6144-1.536 1.4336c0 1.1264-7.168 6.7584-8.6016 6.7584-1.024 0-1.4336-4.608-0.4096-5.8368 1.8432-2.2528-3.072-1.6384-6.0416 0.7168-3.4816 2.7648-6.2464 2.6624-6.656-0.2048-0.3072-2.1504-0.8192-2.3552-5.9392-2.3552-6.656 0.1024-11.5712 1.2288-10.752 2.56 1.2288 2.048-10.4448 3.1744-20.1728 2.048-5.2224-0.6144-10.1376-1.2288-10.752-1.2288-0.7168-0.1024-1.536-0.9216-1.8432-1.9456-0.4096-1.024-1.3312-1.6384-2.4576-1.4336-2.9696 0.512-17.5104 0.512-101.888-0.1024-78.5408-0.6144-78.7456-0.6144-78.2336 1.4336 0.512 1.7408-0.1024 2.2528-3.6864 3.1744-3.4816 0.9216-10.24 1.7408-16.7936 2.048-0.7168 0.1024-1.024 0.6144-0.7168 1.1264 0.3072 0.6144 0 1.024-0.9216 1.024-0.8192 0-1.6384-0.512-1.8432-1.024-0.512-1.536-8.8064 1.9456-8.6016 3.584 0.1024 0.7168 0.8192 2.048 1.536 2.9696 1.2288 1.4336 1.2288 1.6384-0.1024 1.1264-0.9216-0.4096-1.8432 0.1024-2.1504 0.9216-0.512 1.2288-2.1504 1.6384-6.3488 1.6384-5.4272 0-7.3728 1.1264-3.9936 2.4576 1.2288 0.512 1.536 1.6384 1.2288 4.1984-0.2048 1.9456-0.1024 3.584 0.2048 3.584s1.1264 2.6624 1.9456 5.8368c0.9216 3.9936 2.2528 6.5536 4.3008 8.3968 1.6384 1.4336 2.9696 3.072 2.9696 3.584 0 0.6144 1.2288 2.2528 2.7648 3.8912 1.4336 1.536 2.7648 3.6864 2.8672 4.608 0.1024 1.024 0.6144 2.7648 1.1264 3.8912 0.9216 2.2528 6.5536 7.68 7.8848 7.68 1.7408 0 9.0112 8.704 9.728 11.776 0.512 1.7408 1.9456 3.6864 3.3792 4.3008 1.3312 0.7168 2.048 1.3312 1.536 1.3312-1.6384 0 2.8672 2.9696 4.608 3.072 1.8432 0 9.8304 7.68 10.6496 10.3424 0.4096 1.1264 1.024 1.9456 1.536 1.9456s4.5056 3.4816 8.9088 7.7824c9.0112 8.8064 10.9568 9.728 18.5344 9.728 5.2224 0 8.2944-1.1264 11.776-4.608 0.8192-0.8192 3.9936-2.6624 6.9632-3.9936 3.072-1.3312 7.3728-3.6864 9.5232-5.12 2.1504-1.536 5.3248-2.7648 6.9632-2.7648 2.2528 0 3.9936-1.1264 6.656-4.096 2.048-2.2528 4.3008-4.096 5.0176-4.096s3.4816-1.8432 6.0416-4.096c3.1744-2.7648 5.7344-4.096 7.7824-4.096 1.9456 0 3.7888-0.9216 5.3248-2.6624 2.048-2.3552 7.0656-5.3248 21.7088-12.4928 2.8672-1.4336 5.632-3.1744 6.144-3.8912 1.2288-1.4336 8.704-5.5296 10.24-5.5296 0.6144 0 3.072-1.8432 5.5296-4.096 2.3552-2.2528 4.9152-4.096 5.632-4.096 1.7408 0 21.8112-11.9808 24.2688-14.4384 1.024-1.024 3.1744-2.1504 4.7104-2.56 4.8128-1.1264 10.4448-4.4032 13.312-7.68l2.7648-2.9696 1.8432 2.8672c1.7408 2.8672 1.7408 3.072-0.6144 10.0352-1.3312 3.8912-2.9696 11.264-3.584 16.2816-0.7168 5.12-1.9456 11.264-2.6624 13.824-0.8192 2.56-1.9456 9.0112-2.6624 14.336-0.6144 5.3248-1.536 10.752-2.048 12.0832s-1.6384 6.0416-2.4576 10.3424-3.2768 16.7936-5.4272 27.7504c-2.2528 10.9568-4.8128 24.3712-5.7344 29.696-1.024 5.3248-2.4576 13.0048-3.3792 16.896-0.8192 3.9936-2.048 10.0352-2.6624 13.6192-0.6144 3.4816-1.6384 6.2464-2.2528 6.144-0.512 0-2.6624-0.3072-4.608-0.512zM218.9312 622.2848c0-1.9456-0.512-3.4816-1.1264-3.4816-0.7168 0-1.2288 1.024-1.2288 2.3552 0 1.2288 0.3072 2.048 0.8192 1.7408 0.4096-0.2048 0.7168 0.3072 0.7168 1.1264 0 0.9216 0.2048 1.6384 0.4096 1.6384s0.4096-1.536 0.4096-3.3792z" fill="#2097CD" p-id="15146"></path><path d="M754.176 813.056c-1.024-1.6384 1.4336-5.12 3.584-5.12 2.6624 0 2.56 1.8432-0.2048 4.1984-2.56 2.2528-2.56 2.2528-3.3792 0.9216zM785.408 798.72c0-1.8432 0.6144-2.048 5.632-2.048h5.632v-68.608c0-57.7536 0.2048-68.608 1.4336-68.608 0.7168 0 1.6384 0.8192 1.8432 1.8432 0.2048 0.9216 0.4096 32.6656 0.3072 70.3488v68.608l-7.3728 0.3072c-6.9632 0.3072-7.4752 0.1024-7.4752-1.8432zM279.8592 726.3232c-1.9456-0.7168-1.7408-7.4752 0.2048-7.4752 0.8192 0 1.536 0.6144 1.536 1.4336s0.7168 1.7408 1.6384 2.048 48.128 0.6144 105.0624 0.6144c102.5024 0 103.424 0 103.936-2.048 1.024-3.7888 3.3792-2.3552 3.3792 2.048v4.096l-107.2128-0.1024c-59.0848 0-107.9296-0.3072-108.544-0.6144zM492.2368 687.104c-0.4096-1.6384-1.4336-2.048-4.7104-2.048-3.4816 0-4.1984-0.3072-4.1984-2.048 0-2.2528 2.8672-2.6624 9.1136-1.4336 2.7648 0.6144 3.1744 1.024 3.1744 4.096 0 3.8912-2.4576 4.9152-3.3792 1.4336zM625.4592 550.912c-11.3664-2.3552-24.7808-6.2464-25.1904-7.3728-0.2048-0.4096-1.2288-0.8192-2.2528-0.8192-1.9456 0-9.216-2.9696-10.24-4.1984-0.3072-0.4096-1.536-0.9216-2.7648-1.3312-1.3312-0.4096-2.3552-1.4336-2.3552-2.2528s-0.9216-1.4336-2.048-1.4336c-2.4576 0-7.168-2.1504-7.168-3.2768 0-0.4096-0.7168-0.8192-1.536-0.8192s-1.536-0.7168-1.536-1.536c0-0.9216-0.9216-1.536-2.56-1.536-1.4336 0-2.56-0.4096-2.56-0.9216s-0.9216-1.1264-2.1504-1.4336c-1.1264-0.3072-2.3552-1.536-2.6624-2.6624-0.3072-1.2288-1.4336-2.1504-2.4576-2.1504-1.1264 0-2.2528-0.7168-2.56-1.536-0.4096-0.8192-1.2288-1.536-1.9456-1.536-2.6624 0-3.584-8.192-1.2288-10.752 1.536-1.7408 2.9696-3.6864 4.3008-5.8368 3.1744-4.9152 8.3968-10.9568 9.5232-11.0592 0.6144 0 1.2288-0.7168 1.2288-1.6384s1.6384-3.2768 3.584-5.2224 3.584-3.7888 3.584-4.096 1.024-1.536 2.3552-2.7648 2.6624-2.9696 3.072-3.9936c0.4096-1.2288 1.7408-1.7408 4.3008-1.7408 2.8672 0 3.584 0.4096 3.584 2.048 0 1.2288-0.512 1.7408-1.3312 1.4336-1.4336-0.512-3.8912 2.1504-15.6672 16.9984-3.7888 4.8128-8.4992 10.5472-10.3424 12.8-1.9456 2.2528-3.9936 4.7104-4.608 5.4272-0.6144 0.8192-0.7168 2.1504-0.2048 3.2768 1.2288 2.56 12.5952 11.4688 19.7632 15.5648 3.1744 1.7408 5.9392 3.4816 6.2464 3.7888s4.9152 2.7648 10.24 5.3248c9.4208 4.608 22.6304 8.704 35.328 11.1616 12.8 2.3552 15.872 3.2768 15.872 4.7104 0 1.9456-6.3488 1.7408-17.6128-0.6144zM667.648 551.5264c0-1.3312 7.5776-3.6864 11.776-3.6864 2.1504 0 23.1424-6.9632 26.9312-8.9088 1.7408-1.024 3.2768-2.1504 3.2768-2.56 0-0.512 0.512-0.8192 1.1264-0.8192 1.4336 0 7.5776-4.8128 14.0288-11.0592 13.1072-12.6976 20.48-36.5568 18.5344-59.6992-0.8192-10.0352-3.6864-20.48-7.168-26.112-2.56-4.096-2.4576-4.5056 0.6144-4.5056 2.1504 0 2.56 0.512 2.56 3.072 0 1.9456 0.512 3.072 1.4336 3.072 2.9696 0 6.7584 17.8176 6.7584 31.744 0 8.9088-1.536 19.6608-4.1984 29.184-2.048 7.4752-5.9392 15.872-7.2704 15.872-0.512 0-0.8192 0.7168-0.8192 1.536s-0.4096 1.536-1.024 1.536c-0.512 0-1.024 0.7168-1.024 1.536 0 0.9216-0.9216 1.536-2.56 1.536-1.9456 0-2.56 0.512-2.56 2.3552 0 2.8672-8.2944 10.9568-11.264 10.9568-1.1264 0-2.048 0.7168-2.048 1.536s-0.512 1.536-1.1264 1.536-1.7408 0.7168-2.56 1.536c-0.9216 0.8192-2.6624 1.536-4.096 1.536-1.3312 0-2.4576 0.512-2.4576 1.024 0 0.6144-1.1264 1.024-2.56 1.024s-2.56 0.4096-2.56 0.9216c0 1.024-8.2944 3.6864-18.2272 5.7344-9.5232 1.9456-13.5168 1.9456-13.5168 0.1024zM322.56 547.9424c0-1.4336-0.6144-2.1504-1.8432-2.1504-1.4336 0-2.4576-2.1504-4.7104-9.9328-1.6384-5.5296-3.4816-12.5952-4.1984-15.6672s-3.1744-11.8784-5.4272-19.456c-8.8064-30.0032-14.5408-52.6336-14.5408-57.2416 0-1.6384-0.4096-3.1744-1.024-3.3792-0.9216-0.3072-3.4816-8.6016-9.216-30.0032-6.4512-23.8592-15.1552-55.6032-23.04-83.968-2.7648-9.5232-5.12-18.944-5.4272-20.6848-0.2048-1.8432-0.8192-3.3792-1.3312-3.3792s-0.9216-1.6384-0.9216-3.584c0-3.3792 0.2048-3.584 3.584-3.584 2.4576 0 3.584 0.512 3.584 1.536 0 0.8192-0.7168 1.536-1.6384 1.536-1.024 0-1.4336 0.6144-1.024 1.8432 6.5536 22.528 14.336 50.2784 15.9744 57.0368 1.024 3.9936 3.4816 13.2096 5.5296 20.48 6.2464 22.016 16.1792 58.1632 16.6912 60.928 0.2048 1.4336 0.8192 3.4816 1.3312 4.608 0.4096 1.1264 1.3312 4.4032 2.048 7.168 2.3552 10.0352 9.4208 35.84 10.3424 37.5808 0.512 1.024 0.9216 2.56 0.9216 3.584 0 0.9216 0.4096 3.072 1.024 4.8128 2.3552 7.2704 6.2464 20.7872 6.656 23.1424 0.3072 1.4336 1.9456 7.9872 3.7888 14.5408l3.3792 12.0832h4.096c2.2528 0 12.288 0.2048 22.2208 0.3072 17.92 0.2048 18.1248 0.2048 19.1488-2.1504 0.6144-1.2288 3.1744-10.24 5.7344-19.968 2.56-9.6256 6.144-23.1424 8.0896-29.9008 1.8432-6.7584 3.9936-14.5408 4.7104-17.408 0.7168-2.7648 1.8432-7.168 2.56-9.728s2.56-9.216 3.9936-14.848c7.5776-28.3648 13.312-47.616 13.9264-46.8992 0.4096 0.4096 2.8672 9.1136 5.5296 19.2512 2.7648 10.1376 6.0416 22.3232 7.3728 27.136 5.2224 19.1488 19.2512 70.8608 22.3232 82.2272 2.6624 10.3424 3.4816 12.1856 5.4272 12.5952 3.9936 1.024 2.8672 3.4816-1.536 3.4816h-3.8912l-3.7888-14.5408c-2.048-8.0896-3.7888-15.6672-3.7888-16.896 0-1.3312-0.4096-2.3552-0.8192-2.3552-0.512 0-1.3312-1.9456-1.9456-4.3008-0.6144-2.4576-4.608-17.5104-9.0112-33.5872s-9.728-35.84-11.8784-43.8272c-2.048-8.0896-4.096-14.9504-4.4032-15.2576-0.2048-0.3072-0.8192 1.1264-1.1264 3.1744-0.4096 2.048-1.1264 3.6864-1.536 3.6864s-1.024 2.1504-1.3312 4.9152c-0.4096 2.6624-1.6384 8.2944-2.7648 12.4928-4.9152 17.408-6.3488 23.2448-6.8608 26.4192-0.3072 1.7408-0.9216 3.2768-1.4336 3.2768s-0.9216 1.024-0.9216 2.3552-1.1264 6.4512-2.4576 11.5712c-1.4336 5.0176-4.096 14.848-6.0416 21.9136s-5.0176 18.3296-6.7584 25.1904c-1.8432 6.7584-3.7888 13.0048-4.1984 13.824-0.8192 1.1264-5.5296 1.536-25.088 1.7408-23.7568 0.4096-24.064 0.3072-24.064-1.7408zM478.208 548.352c0-1.7408 5.9392-3.072 10.1376-2.2528 2.7648 0.6144 2.8672 0.4096 5.0176-7.2704 7.8848-28.3648 9.5232-34.5088 11.9808-43.7248 1.536-5.632 5.0176-18.3296 7.8848-28.16 4.1984-14.7456 8.8064-31.232 18.2272-66.048 0.4096-1.6384 3.8912-14.1312 7.68-27.648s7.7824-28.2624 8.8064-32.768c1.1264-4.5056 2.4576-9.8304 2.9696-11.776 5.9392-21.504 8.192-29.5936 8.192-30.1056 0-0.3072-0.7168-0.6144-1.536-0.6144s-1.536-0.7168-1.536-1.536c0-1.024 1.1264-1.536 3.584-1.536 3.2768 0 3.584 0.3072 3.584 2.8672 0 1.536-0.7168 5.12-1.6384 7.8848-0.8192 2.8672-1.9456 6.9632-2.4576 9.216s-1.4336 5.9392-2.048 8.192-1.536 5.7344-2.048 7.68c-1.024 4.4032-3.4816 13.2096-14.336 52.224-4.608 16.5888-10.24 37.1712-12.5952 45.568-2.2528 8.4992-4.5056 15.5648-5.0176 15.6672-0.4096 0.2048-0.8192 1.536-0.8192 2.8672 0 3.7888-2.1504 11.6736-3.1744 11.6736-0.512 0-0.9216 1.3312-0.9216 2.8672s-1.536 8.2944-3.4816 15.0528-5.2224 18.7392-7.3728 26.624c-2.048 7.8848-4.1984 14.5408-4.7104 14.6432-0.4096 0.2048-0.8192 1.3312-0.8192 2.56 0 3.072-3.2768 16.4864-4.096 17.1008-0.4096 0.3072-1.024 2.6624-1.4336 5.4272-0.512 3.1744-1.2288 4.8128-2.2528 4.8128-0.8192 0-1.4336 0.512-1.4336 1.024 0 0.6144-3.072 1.024-7.168 1.024-5.632 0-7.168-0.3072-7.168-1.536zM638.464 499.712c-15.5648-3.072-27.8528-9.216-18.6368-9.216 2.048 0 3.7888 0.4096 3.9936 0.8192 0.4096 1.2288 22.1184 6.3488 26.7264 6.3488 3.072 0 3.7888 0.4096 3.7888 2.048 0 2.56-3.072 2.56-15.872 0zM659.456 499.9168c0-1.8432 0.8192-2.1504 6.656-2.7648 3.6864-0.4096 6.656-1.1264 6.656-1.536s1.1264-1.024 2.3552-1.4336c3.584-0.8192 11.9808-9.1136 11.9808-11.6736 0-1.536 0.6144-2.2528 2.048-2.2528 2.4576 0 2.56 2.1504 0.2048 7.2704-3.2768 7.0656-12.4928 12.1856-24.8832 13.824-4.608 0.6144-5.0176 0.512-5.0176-1.4336z" fill="#2097CD" p-id="15147"></path><path d="M607.744 488.1408c-6.144-3.584-16.4864-10.752-18.0224-12.5952-1.1264-1.4336-0.8192-1.536 2.7648-1.2288 3.2768 0.2048 4.096 0.7168 4.3008 2.6624 0.3072 1.7408 1.024 2.2528 3.3792 2.2528 1.6384 0 2.9696 0.512 2.9696 1.024 0 0.6144 0.7168 1.024 1.536 1.024s1.536 0.4096 1.536 0.8192 1.6384 1.4336 3.584 2.1504c2.7648 0.9216 3.584 1.8432 3.584 3.7888 0 3.072-0.512 3.072-5.632 0.1024zM686.08 471.04c-0.7168-2.2528-1.9456-4.096-2.6624-4.096s-1.9456-0.8192-2.6624-1.8432-5.7344-3.6864-11.0592-5.7344c-5.3248-2.1504-11.3664-4.5056-13.312-5.3248s-8.0896-2.56-13.7216-3.9936c-5.5296-1.4336-10.9568-3.072-11.9808-3.584-1.024-0.6144-2.7648-1.024-3.8912-1.024-1.6384 0-2.1504-0.6144-2.1504-2.4576 0-2.3552 0.2048-2.4576 3.3792-1.536 1.7408 0.6144 3.9936 1.2288 4.8128 1.536 0.8192 0.2048 6.8608 1.8432 13.312 3.584 6.4512 1.6384 13.2096 3.6864 14.848 4.4032 2.8672 1.3312 7.4752 2.9696 8.704 3.1744 2.1504 0.3072 12.4928 5.8368 15.2576 8.192 5.3248 4.608 8.192 12.8 4.4032 12.8-1.3312 0-2.3552-1.3312-3.2768-4.096zM881.7664 470.7328c-1.3312-1.6384-9.3184-19.6608-13.5168-30.4128-2.56-6.4512-2.9696-9.0112-2.8672-16.0768 0.1024-4.608 0.6144-8.192 1.024-7.8848 0.512 0.3072 0.9216-0.2048 0.9216-1.024 0-1.9456 3.8912-6.0416 5.0176-5.3248 2.4576 1.536 9.5232-13.6192 9.4208-20.0704 0-3.1744 3.3792-6.3488 12.1856-11.3664 4.608-2.7648 6.144-4.3008 8.6016-9.216 1.6384-3.2768 4.608-7.2704 6.5536-8.704 1.9456-1.536 5.5296-4.5056 7.8848-6.5536 2.3552-2.1504 4.7104-3.8912 5.12-3.8912 1.3312 0 6.656-5.632 6.656-6.9632 0-0.7168 0.4096-1.1264 0.9216-0.8192 1.2288 0.8192 6.0416-5.0176 6.8608-8.192 0.3072-1.3312 1.024-2.2528 1.4336-1.9456 0.512 0.3072 1.6384-2.048 2.56-5.12 0.9216-3.2768 2.1504-5.632 2.8672-5.4272 3.072 0.512 14.0288-2.8672 14.0288-4.4032 0-0.512 0.8192-0.9216 1.8432-0.9216 2.3552 0 4.3008-1.9456 4.3008-4.4032 0-1.8432 3.6864-9.3184 5.632-11.4688 0.6144-0.6144 1.7408-1.4336 2.6624-1.7408 1.9456-0.7168 1.9456-0.7168 7.8848 13.5168 2.3552 5.3248 6.0416 14.1312 8.3968 19.456 9.4208 21.6064 9.3184 21.1968 8.2944 23.7568-1.4336 3.4816-7.4752 10.3424-18.0224 20.2752-5.12 4.8128-11.0592 10.9568-13.312 13.7216-2.2528 2.8672-7.0656 8.0896-10.6496 11.776-3.584 3.7888-9.728 10.4448-13.7216 14.9504-3.8912 4.5056-8.9088 9.6256-10.9568 11.264-2.1504 1.7408-5.632 5.12-7.8848 7.68-8.0896 9.5232-35.9424 36.864-37.376 36.864-0.9216 0-2.1504-0.6144-2.7648-1.3312zM345.1904 438.9888c-0.6144-1.6384-1.1264-3.4816-1.1264-4.096 0-0.7168-1.3312-6.5536-3.072-13.0048-3.584-13.9264-3.584-14.336-1.2288-14.336 1.536 0 2.3552 1.9456 4.4032 10.4448l2.4576 10.4448 1.1264-4.608c0.512-2.4576 1.3312-5.2224 1.6384-6.0416 0.4096-0.8192 2.3552-7.9872 4.4032-15.872s5.0176-18.7392 6.656-24.064 3.6864-12.9024 4.608-16.896c0.9216-3.8912 2.048-7.9872 2.56-8.9088 0.6144-1.024 1.024-2.9696 1.024-4.4032s0.4096-2.56 0.9216-2.56c0.4096 0 1.4336-2.8672 2.1504-6.4512 1.6384-7.7824 3.4816-15.0528 5.4272-21.1968 1.3312-4.096 2.1504-6.8608 4.3008-15.0528 0.7168-2.4576 4.608-3.3792 4.608-1.024 0 0.6144-3.4816 13.4144-7.68 28.3648-4.3008 14.9504-8.704 30.6176-9.8304 34.816s-3.1744 11.3664-4.5056 15.872-4.096 14.4384-6.144 22.016c-4.9152 17.92-7.3728 26.8288-9.728 33.792l-1.8432 5.632-1.1264-2.8672zM467.6608 440.6272c-0.3072-0.512-1.7408-5.2224-3.1744-10.5472s-3.072-11.5712-3.6864-13.824-3.2768-11.4688-5.7344-20.48c-2.56-9.0112-5.9392-21.0944-7.68-26.7264-1.6384-5.7344-4.096-14.7456-5.4272-19.968-1.3312-5.3248-5.0176-18.432-8.192-29.184s-5.7344-20.0704-5.7344-20.7872c0-0.6144 0.8192-1.1264 1.9456-1.1264 1.536 0 2.4576 2.048 5.12 11.6736 1.7408 6.3488 3.1744 12.5952 3.1744 13.824 0 1.1264 0.4096 2.1504 0.9216 2.1504 0.6144 0 1.3312 2.1504 1.7408 4.9152 0.4096 2.6624 1.024 5.0176 1.3312 5.3248 0.9216 0.7168 4.1984 14.4384 4.1984 17.7152 0 1.4336 0.4096 2.7648 1.024 2.9696 0.512 0.2048 2.9696 7.68 5.5296 16.6912 7.4752 26.9312 14.0288 50.0736 14.6432 51.712 0.4096 0.9216 0.9216 0.2048 1.4336-2.048 0.4096-1.9456 1.2288-5.632 1.8432-8.192 0.512-2.56 3.072-12.9024 5.5296-23.04 2.56-10.1376 6.8608-27.4432 9.5232-38.4 2.7648-10.9568 5.3248-20.0704 5.7344-20.2752s0.8192-1.6384 0.8192-3.2768c0-4.096 2.2528-13.312 3.2768-13.312 0.4096 0 0.8192-1.4336 0.8192-3.072 0-1.7408 0.7168-6.144 1.6384-9.728 1.6384-6.4512 1.8432-6.656 4.9152-6.656 1.9456 0 2.6624 0.3072 1.9456 0.8192-1.2288 0.8192-3.6864 9.0112-7.0656 23.2448-0.7168 3.3792-1.8432 7.7824-2.4576 9.728-1.024 3.7888-7.68 31.1296-15.872 66.048-6.4512 27.136-10.6496 43.7248-11.1616 44.2368-0.2048 0.2048-0.6144 0.1024-0.9216-0.4096zM612.352 438.784c0-2.4576 0.1024-2.56 3.2768-1.2288 4.7104 1.9456 4.9152 3.7888 0.4096 3.7888-3.2768 0-3.6864-0.3072-3.6864-2.56zM603.4432 437.5552c-0.7168-0.2048-1.3312-1.1264-1.3312-1.9456 0-0.9216-1.1264-1.4336-3.072-1.4336-1.6384 0-3.072-0.4096-3.072-1.024 0-0.512-0.9216-1.024-1.9456-1.024-1.1264 0-2.6624-0.7168-3.584-1.536-0.8192-0.8192-1.9456-1.536-2.56-1.536s-1.1264-0.7168-1.1264-1.536-0.9216-1.536-2.048-1.536-2.048-0.7168-2.048-1.536-0.8192-1.536-1.8432-1.536c-1.8432 0-7.3728-4.9152-7.3728-6.5536 0-0.512-0.8192-1.6384-1.9456-2.56-5.12-4.5056-11.3664-22.8352-11.3664-33.5872 0-5.7344 2.7648-6.144 3.584-0.512 3.8912 26.5216 15.36 41.472 40.7552 53.3504 3.7888 1.7408 6.8608 3.584 6.8608 4.1984 0 1.024-5.632 1.3312-7.8848 0.3072zM728.1664 427.9296l-4.5056-5.0176h3.7888c2.56 0 3.6864 0.4096 3.6864 1.536 0 0.8192 0.7168 1.536 1.536 1.536 1.024 0 1.536 1.1264 1.536 3.584 0 1.9456-0.3072 3.584-0.7168 3.4816-0.512-0.1024-2.8672-2.3552-5.3248-5.12zM711.168 414.4128c-9.9328-6.144-34.7136-15.1552-56.32-20.5824-23.6544-5.9392-36.7616-13.7216-38.2976-22.6304-0.4096-2.2528-0.512-4.9152-0.3072-5.8368 0.512-2.7648 3.2768-2.2528 3.2768 0.6144 0 1.4336 0.512 2.8672 1.024 3.1744 0.6144 0.3072 1.024 2.6624 1.024 5.2224 0 4.5056 0 4.5056 3.584 4.5056 1.9456 0 3.584 0.4096 3.584 0.9216 0 0.4096 2.048 1.4336 4.608 2.1504s4.608 1.6384 4.608 2.048 1.7408 1.1264 3.8912 1.536c2.048 0.4096 4.3008 1.1264 4.8128 1.536 0.6144 0.512 5.8368 2.048 11.776 3.584 10.3424 2.6624 28.0576 7.9872 32.256 9.728 1.1264 0.512 4.1984 1.6384 6.9632 2.6624 2.6624 0.9216 4.8128 2.3552 4.8128 3.072 0 0.9216 1.2288 1.4336 3.584 1.4336 1.9456 0 3.584 0.512 3.584 1.024 0 0.6144 0.9216 1.024 2.048 1.024s2.048 0.512 2.048 1.024c0 0.6144 0.7168 1.024 1.536 1.024s1.536 0.512 1.536 1.024c0 0.6144 0.7168 1.024 1.536 1.024 0.9216 0 1.536 0.9216 1.536 2.56 0 1.4336-0.3072 2.56-0.7168 2.56-0.512-0.1024-3.9936-2.048-7.9872-4.4032zM74.8544 413.4912c-0.1024-2.1504 0.4096-3.8912 0.9216-3.8912 1.1264 0 1.1264 1.4336 0 5.12-0.7168 2.2528-0.8192 2.1504-0.9216-1.2288z" fill="#2097CD" p-id="15148"></path><path d="M334.4384 395.0592c-1.536-6.3488-4.4032-17.92-6.3488-25.7024s-3.4816-14.6432-3.4816-15.1552 0.8192-0.9216 1.8432-0.9216c1.536 0 2.7648 3.4816 7.2704 22.2208 6.3488 25.6 7.2704 31.0272 5.0176 31.0272-1.024 0-2.3552-3.3792-4.3008-11.4688zM66.9696 371.3024c-0.3072-0.8192-0.4096-2.56-0.2048-3.8912 0.3072-1.7408 0.512-1.3312 0.9216 1.536 0.512 3.8912 0.2048 4.8128-0.7168 2.3552zM701.6448 367.104c-1.1264-1.4336-2.56-2.56-3.072-2.56-0.6144 0-1.7408-0.6144-2.4576-1.2288-0.7168-0.7168-5.12-3.1744-9.728-5.4272-4.7104-2.1504-8.4992-4.4032-8.4992-4.8128s-0.8192-0.8192-1.7408-0.8192-5.0176-1.1264-9.1136-2.56c-4.608-1.536-11.0592-2.8672-16.6912-3.2768-6.5536-0.4096-9.3184-1.024-9.3184-1.9456 0-3.072 15.1552-2.4576 27.8528 1.2288 7.68 2.2528 29.184 12.8 34.9184 17.2032 2.6624 2.048 5.12 3.6864 5.3248 3.6864 0.512 0 13.6192-19.2512 18.432-27.2384 1.2288-1.8432 2.8672-4.1984 3.7888-5.2224 0.8192-1.024 2.3552-3.3792 3.2768-5.2224 1.7408-3.3792 1.7408-3.3792-1.1264-5.632-10.6496-8.4992-29.7984-19.0464-37.1712-20.6848-1.9456-0.4096-3.8912-1.2288-4.3008-1.8432-0.3072-0.6144-2.048-1.024-3.7888-1.024-1.6384 0-2.8672-0.3072-2.6624-0.7168 0.2048-0.3072-3.3792-1.2288-7.9872-1.9456-12.3904-1.8432-17.1008-3.2768-17.1008-4.8128 0-1.8432 3.1744-1.8432 14.6432 0.1024 10.1376 1.6384 21.1968 4.5056 22.7328 5.7344 0.512 0.512 1.6384 0.9216 2.4576 0.9216 2.3552 0 23.9616 11.1616 25.9072 13.4144 0.9216 1.024 2.1504 1.9456 2.7648 1.9456s1.1264 0.512 1.1264 1.024c0 0.6144 0.6144 1.024 1.4336 1.024 2.8672 0 6.8608 4.5056 7.4752 8.3968s-1.2288 10.0352-2.8672 10.0352c-0.512 0-0.9216 0.512-0.9216 1.024 0 1.2288-4.1984 7.4752-5.3248 7.9872-0.512 0.2048-0.8192 0.9216-0.8192 1.6384 0 0.6144-0.9216 1.8432-2.048 2.6624s-2.048 2.048-2.048 2.7648-0.4096 1.3312-1.024 1.3312c-0.512 0-1.024 0.6144-1.024 1.4336s-0.6144 2.1504-1.3312 2.8672-1.8432 2.56-2.4576 4.1984c-0.7168 1.536-1.7408 2.7648-2.3552 2.7648-0.512 0-1.024 0.7168-1.024 1.536 0 0.9216-0.9216 1.536-2.56 1.536s-2.56 0.6144-2.56 1.536c0 2.7648-6.656 1.9456-9.0112-1.024zM560.128 358.7072c0.1024-10.24 9.6256-35.1232 13.4144-35.1232 1.3312 0 1.9456-0.7168 1.9456-2.3552 0-3.3792 10.24-13.0048 13.7216-13.0048 1.9456 0 2.6624-0.512 2.6624-1.9456 0-1.1264 0.9216-2.3552 2.2528-2.7648 1.2288-0.3072 3.072-1.4336 4.096-2.3552 2.1504-2.048 13.6192-6.2464 16.9984-6.2464 1.2288 0 2.2528-0.4096 2.2528-0.8192 0-1.024 12.9024-3.2768 18.944-3.2768 3.3792 0 4.608 0.4096 4.608 1.536 0 1.536-0.7168 1.6384-14.6432 3.6864-15.2576 2.1504-31.6416 10.6496-43.4176 22.6304-10.0352 10.24-16.6912 23.9616-19.2512 40.0384-0.4096 2.3552-1.1264 3.7888-2.048 3.7888-1.1264 0-1.536-1.1264-1.536-3.7888zM616.8576 359.2192c1.536-7.5776 9.3184-13.9264 19.3536-15.7696 3.3792-0.6144 3.7888-0.4096 3.7888 1.536 0 1.4336-0.6144 2.1504-1.9456 2.1504-1.024 0-4.608 1.4336-7.9872 3.1744-5.0176 2.56-6.3488 3.8912-8.0896 7.68-1.3312 2.9696-2.56 4.5056-3.8912 4.5056-1.6384 0-1.7408-0.512-1.2288-3.2768zM321.7408 343.552c-2.7648-9.3184-2.8672-11.776-0.4096-11.776 2.048 0 3.8912 5.12 4.9152 13.7216 0.512 4.608 0.4096 5.7344-0.8192 5.7344-0.9216 0-2.2528-2.7648-3.6864-7.68zM316.0064 320.3072c-1.024-3.8912-0.7168-4.9152 1.4336-4.9152 1.6384 0 2.048 0.7168 2.048 3.584 0 4.096-2.4576 5.0176-3.4816 1.3312z" fill="#2097CD" p-id="15149"></path><path d="M313.0368 308.224c-2.1504-7.7824-2.1504-8.192 0.3072-8.192 1.6384 0 2.048 0.7168 2.048 3.584 0 1.9456 0.512 3.584 1.024 3.584 0.6144 0 1.024 1.6384 1.024 3.584 0 5.8368-2.56 4.4032-4.4032-2.56z" fill="#2097CD" p-id="15150"></path><path d="M223.9488 799.4368c-0.3072-0.8192-0.4096-18.0224-0.1024-38.1952 0.2048-20.2752 0.4096-149.2992 0.4096-286.9248V224.256l287.5392 0.2048 287.4368 0.3072 0.3072 287.744 0.2048 287.744-287.6416 0.3072c-249.856 0.3072-287.6416 0.1024-288.1536-1.1264z m268.5952-94.8224c0-19.2512 0-19.3536-2.2528-19.6608-1.3312-0.2048-48.7424-0.3072-105.472-0.1024l-103.2192 0.2048v18.8416c0 14.1312 0.3072 19.0464 1.3312 19.3536 0.6144 0.3072 48.128 0.6144 105.472 0.6144l104.1408 0.1024v-19.3536z m187.8016-156.7744c19.1488-4.1984 33.5872-11.6736 44.3392-22.7328 10.8544-11.264 16.2816-23.6544 18.8416-43.52 1.4336-10.9568 0.1024-25.8048-3.2768-34.5088-6.9632-18.5344-23.1424-32.768-47.0016-41.472-1.9456-0.7168-4.5056-1.7408-5.632-2.1504-4.5056-1.8432-22.1184-7.168-32.256-9.728-5.9392-1.4336-11.1616-3.1744-11.6736-3.6864-0.6144-0.512-1.6384-0.9216-2.4576-0.9216s-2.8672-0.6144-4.608-1.4336c-1.8432-0.8192-4.9152-2.1504-6.9632-2.9696-4.7104-1.9456-11.1616-7.5776-11.1616-9.8304 0-0.9216-0.512-2.2528-1.1264-2.8672-0.7168-0.7168-1.024-3.6864-0.7168-7.7824 0.512-8.8064 3.7888-13.824 11.264-17.5104 11.0592-5.4272 29.4912-5.0176 45.4656 1.024 9.728 3.6864 26.7264 12.4928 30.72 15.9744 1.7408 1.536 3.6864 2.8672 4.3008 2.8672 1.3312 0 6.0416-6.0416 10.8544-14.1312 2.1504-3.4816 4.4032-6.9632 5.12-7.68 2.3552-2.3552 11.8784-17.408 11.8784-18.7392s-1.4336-2.4576-10.5472-9.216c-5.632-3.9936-26.2144-14.7456-28.4672-14.7456-0.8192 0-1.9456-0.4096-2.4576-0.9216-1.536-1.2288-12.5952-4.096-22.7328-5.7344-11.6736-1.9456-35.4304-1.9456-45.3632-0.1024-25.6 4.9152-46.2848 19.7632-55.9104 40.0384-5.8368 12.288-7.5776 19.968-7.5776 34.304 0 37.4784 15.2576 55.6032 59.0848 70.144 7.7824 2.6624 18.5344 5.8368 23.8592 7.2704 5.3248 1.3312 11.3664 3.072 13.312 3.8912s7.3728 2.9696 12.0832 4.7104c14.2336 5.5296 19.5584 11.4688 19.6608 21.8112 0.1024 20.48-24.2688 29.0816-58.1632 20.5824-14.2336-3.584-32.3584-13.1072-43.52-22.8352-2.048-1.8432-4.1984-3.1744-4.608-2.9696-0.512 0.1024-3.9936 3.9936-7.68 8.4992s-7.3728 8.9088-8.0896 9.8304c-12.1856 14.6432-15.2576 19.0464-14.5408 20.5824 0.6144 1.536 11.0592 9.728 17.92 14.0288 20.7872 13.0048 33.792 18.1248 60.3136 23.552 2.56 0.512 12.1856 0.9216 21.504 1.024 13.312 0 18.8416-0.4096 26.0096-1.9456z m-311.808-2.8672c0.512-0.9216 3.2768-10.752 6.2464-21.7088s6.3488-23.4496 7.68-27.648c1.2288-4.3008 3.072-11.1616 4.096-15.36 0.9216-4.1984 2.1504-8.6016 2.56-9.728 0.512-1.1264 1.1264-3.1744 1.3312-4.608 0.3072-1.4336 1.536-6.2464 2.7648-10.752s2.8672-10.4448 3.584-13.312c0.7168-2.7648 2.4576-9.5232 3.9936-14.848 5.7344-20.992 6.4512-23.1424 7.0656-20.992 0.3072 1.1264 2.4576 9.216 4.8128 17.92 2.2528 8.704 5.7344 21.6064 7.68 28.672 10.24 37.376 19.5584 71.4752 22.3232 82.2272l3.1744 11.9808h45.568l1.1264-4.3008c0.7168-2.4576 1.8432-6.4512 2.56-9.0112 0.8192-2.56 3.9936-14.2336 7.168-26.112 3.2768-11.776 8.8064-31.8464 12.3904-44.544 3.4816-12.6976 8.2944-29.696 10.4448-37.888 2.2528-8.192 7.8848-28.4672 12.4928-45.056 10.9568-39.2192 13.312-47.9232 14.336-52.224 0.512-1.9456 1.4336-5.4272 2.048-7.68s1.536-5.9392 2.048-8.192 1.536-6.2464 2.3552-9.0112l1.536-4.8128h-56.0128l-1.536 5.4272c-0.9216 2.8672-5.7344 22.4256-10.8544 43.2128-5.12 20.8896-10.9568 44.3392-12.9024 52.224-2.048 7.8848-4.096 16.384-4.608 18.944-0.6144 2.56-1.536 6.4512-2.048 8.704-0.6144 2.2528-1.3312 5.632-1.7408 7.5776-0.9216 4.7104-2.9696 5.12-3.7888 0.9216-0.4096-1.8432-1.1264-4.7104-1.6384-6.4512-0.512-1.6384-3.072-10.4448-5.632-19.456s-6.7584-23.7568-9.3184-32.768-6.0416-21.1968-7.5776-27.136-3.584-13.0048-4.4032-15.872c-0.8192-2.7648-3.1744-11.0592-5.2224-18.432-2.1504-7.2704-4.096-14.1312-4.3008-15.1552-0.512-1.6384-2.1504-1.7408-20.992-1.536l-20.48 0.3072-1.3312 4.096c-0.6144 2.2528-1.8432 6.144-2.56 8.704s-1.9456 6.656-2.7648 9.216c-1.9456 6.144-3.7888 13.4144-5.4272 21.2992-0.7168 3.4816-1.7408 6.3488-2.1504 6.3488-0.512 0-0.9216 1.1264-0.9216 2.56s-0.4096 3.3792-1.024 4.4032c-0.512 0.9216-1.6384 5.0176-2.56 8.9088-0.9216 3.9936-2.9696 11.5712-4.608 16.896s-4.608 16.1792-6.656 24.064-4.096 15.2576-4.608 16.384c-0.4096 1.1264-1.6384 5.3248-2.56 9.216-1.024 3.9936-2.1504 7.8848-2.6624 8.704-0.7168 1.3312-0.8192 1.3312-1.3312 0-0.6144-1.8432-16.896-67.9936-20.6848-84.48-1.4336-6.144-3.4816-14.0288-4.4032-17.408-1.024-3.3792-3.584-13.6192-5.8368-22.7328l-3.9936-16.6912h-28.4672c-26.7264 0-28.3648 0.1024-27.4432 1.7408 0.512 1.024 2.2528 6.4512 3.6864 12.0832 1.536 5.632 4.7104 17.408 7.168 26.112s6.144 22.1184 8.192 29.696c2.1504 7.5776 6.0416 21.8112 8.8064 31.5392 2.7648 9.8304 5.0176 18.5344 5.0176 19.456s1.3312 5.9392 2.9696 10.9568c1.6384 5.12 3.6864 12.4928 4.7104 16.384 3.1744 12.9024 9.9328 37.6832 14.0288 51.712 2.2528 7.5776 4.7104 16.384 5.4272 19.456 3.3792 14.6432 8.0896 28.5696 9.6256 28.9792 0.9216 0.3072 10.9568 0.512 22.3232 0.6144 18.8416 0.1024 20.7872-0.1024 21.7088-1.7408z" fill="#212222" p-id="15151"></path></svg>